<?xml version="1.0" standalone="no"?>
<!DOCTYPE svg PUBLIC "-//W3C//DTD SVG 20010904//EN"
 "http://www.w3.org/TR/2001/REC-SVG-20010904/DTD/svg10.dtd">
<svg version="1.0" xmlns="http://www.w3.org/2000/svg"
 width="501.000000pt" height="498.000000pt" viewBox="0 0 501.000000 498.000000"
 preserveAspectRatio="xMidYMid meet">

<g transform="translate(0.000000,498.000000) scale(0.100000,-0.100000)"
fill="#000000" stroke="none">
<path d="M2280 4940 c-410 -45 -829 -193 -1156 -408 -194 -127 -411 -324 -550
-497 -155 -194 -321 -491 -398 -713 -158 -453 -182 -942 -71 -1417 167 -716
679 -1326 1380 -1642 270 -123 520 -184 865 -214 299 -25 709 34 1016 146 140
51 380 172 504 253 484 317 846 792 995 1304 127 437 143 851 48 1293 -90 422
-323 849 -634 1166 -378 384 -869 629 -1429 714 -127 19 -453 27 -570 15z
m630 -45 c411 -71 755 -218 1097 -471 570 -422 922 -1107 950 -1849 16 -412
-87 -876 -269 -1215 -118 -219 -245 -389 -432 -576 -207 -206 -410 -349 -681
-480 -826 -398 -1814 -300 -2555 252 -374 279 -653 646 -809 1064 -229 618
-209 1282 57 1879 99 221 279 489 452 674 335 357 844 625 1362 717 189 34
262 39 473 35 158 -3 232 -9 355 -30z"/>
<path d="M2324 4869 c-552 -42 -1107 -290 -1498 -669 -371 -361 -602 -812
-693 -1355 -28 -169 -25 -563 5 -740 85 -492 283 -894 612 -1239 202 -211 414
-364 695 -502 353 -173 670 -247 1060 -247 265 -1 466 28 702 99 803 243 1421
876 1618 1661 60 236 70 327 70 623 -1 245 -3 275 -28 405 -51 266 -111 443
-231 682 -323 643 -959 1113 -1693 1248 -125 23 -375 46 -473 43 -25 0 -90 -4
-146 -9z m340 -147 c2 -4 1 -14 -4 -22 -7 -11 -12 -12 -21 -3 -6 6 -8 16 -5
22 8 13 23 14 30 3z m-614 -32 c0 -11 -7 -20 -15 -20 -15 0 -21 21 -8 33 12
13 23 7 23 -13z m290 -12 c0 -6 -7 -5 -15 2 -8 7 -15 17 -15 22 0 6 7 5 15 -2
8 -7 15 -17 15 -22z m426 11 c10 -17 -13 -36 -27 -22 -12 12 -4 33 11 33 5 0
12 -5 16 -11z m284 -33 c0 -8 -4 -17 -9 -21 -12 -7 -24 12 -16 25 9 15 25 12
25 -4z m-130 -14 c0 -13 -12 -22 -22 -16 -10 6 -1 24 13 24 5 0 9 -4 9 -8z
m260 -2 c0 -5 -2 -10 -4 -10 -3 0 -8 5 -11 10 -3 6 -1 10 4 10 6 0 11 -4 11
-10z m-990 -26 c0 -17 -22 -14 -28 4 -2 7 3 12 12 12 9 0 16 -7 16 -16z m-375
-14 c3 -11 13 -20 21 -20 8 0 12 -5 9 -10 -4 -6 -10 -8 -15 -5 -5 3 -16 -7
-24 -22 -14 -27 -15 -27 -16 -5 0 12 -7 25 -15 28 -8 4 -15 10 -15 15 0 5 7 9
15 9 8 0 15 7 15 15 0 22 18 18 25 -5z m1325 0 c0 -5 -4 -10 -10 -10 -5 0 -10
5 -10 10 0 6 5 10 10 10 6 0 10 -4 10 -10z m-528 -10 c248 -29 464 -154 543
-314 23 -47 28 -71 28 -130 0 -89 -28 -152 -97 -219 l-49 -49 18 -30 c22 -37
17 -95 -19 -218 -14 -47 -27 -96 -30 -110 -8 -37 -31 -65 -46 -55 -10 6 -10
10 2 19 17 13 39 100 31 125 -4 12 -3 13 4 3 7 -9 13 -2 21 27 29 94 32 134
15 183 l-17 47 47 60 c75 97 91 136 92 216 0 59 -5 78 -30 124 -65 118 -169
197 -333 250 -175 58 -308 61 -492 14 -142 -36 -233 -84 -311 -162 -140 -141
-156 -275 -48 -417 54 -72 49 -85 -10 -23 -95 97 -114 219 -53 341 41 84 141
180 234 225 107 52 272 94 393 102 11 0 59 -4 107 -9z m706 -36 c4 -26 -26
-40 -45 -21 -8 7 -11 21 -7 31 9 24 48 17 52 -10z m-336 -9 c0 -5 -5 -11 -11
-13 -6 -2 -11 4 -11 13 0 9 5 15 11 13 6 -2 11 -8 11 -13z m-1212 1 c0 -3 -4
-8 -10 -11 -5 -3 -10 -1 -10 4 0 6 5 11 10 11 6 0 10 -2 10 -4z m1685 -6 c3
-5 1 -10 -4 -10 -6 0 -11 5 -11 10 0 6 2 10 4 10 3 0 8 -4 11 -10z m-825 -21
c215 -27 403 -136 474 -276 9 -18 16 -38 15 -45 0 -7 -4 -3 -9 9 -6 15 -15 21
-25 17 -10 -4 -15 0 -15 10 0 9 -4 15 -9 14 -4 -2 -31 18 -58 44 -35 32 -48
50 -42 60 7 10 12 10 26 -4 11 -12 13 -18 5 -18 -7 0 -10 -4 -7 -10 3 -5 11
-10 16 -10 6 0 7 6 3 13 -5 8 -3 8 9 -2 9 -7 14 -18 10 -24 -3 -6 -1 -7 5 -3
8 4 10 2 6 -7 -5 -15 10 -30 34 -33 7 -2 11 3 9 9 -2 7 -10 12 -18 12 -8 0
-15 6 -15 13 -1 6 -2 16 -3 21 0 5 -17 21 -36 36 -31 23 -38 25 -52 13 -14
-11 -15 -10 -9 12 6 21 5 22 -4 7 -6 -9 -8 -22 -5 -27 3 -6 1 -10 -5 -10 -6 0
-8 -4 -5 -10 3 -5 4 -10 0 -10 -4 0 -83 35 -107 47 -5 2 -8 2 -8 -1 0 -3 27
-19 60 -36 33 -17 60 -32 60 -35 0 -3 -30 6 -67 20 -41 15 -60 19 -49 10 11
-8 26 -15 33 -15 7 0 13 -4 13 -9 0 -6 -26 -1 -57 10 -83 28 -86 18 -4 -16 74
-32 91 -49 19 -20 -23 9 -63 19 -88 21 -40 4 -37 2 23 -14 37 -10 73 -24 80
-31 9 -10 6 -10 -18 -1 -44 17 -175 28 -175 15 0 -5 -5 -3 -10 5 -5 8 -10 10
-10 4 0 -8 -13 -9 -40 -4 -22 4 -42 5 -45 2 -8 -9 -85 -8 -85 1 0 4 -13 7 -30
7 -16 0 -30 -4 -30 -8 0 -4 -16 -6 -36 -4 -24 3 -39 0 -45 -9 -6 -11 -9 -11
-9 -1 0 15 -35 8 -100 -20 -25 -10 -40 -14 -34 -8 6 6 44 24 85 40 41 16 66
29 56 30 -10 0 -34 -7 -54 -15 -19 -8 -41 -15 -47 -15 -21 1 39 29 97 46 32 9
60 20 62 24 6 9 -118 -24 -168 -45 -22 -9 -36 -11 -32 -6 9 16 -7 13 -35 -6
-24 -16 -24 -16 -10 2 8 10 46 33 85 52 38 18 63 33 55 33 -34 0 -149 -65
-200 -113 l-55 -52 50 54 c28 29 70 66 94 82 51 33 48 38 -7 10 -20 -10 -70
-53 -109 -94 -40 -41 -73 -71 -73 -65 0 5 14 23 30 40 33 33 38 43 15 34 -22
-8 -18 2 6 15 15 8 19 8 15 0 -4 -6 -2 -11 4 -11 7 0 10 7 7 14 -4 10 -1 13 8
10 7 -3 21 6 30 20 9 14 31 34 48 45 18 12 28 21 24 21 -5 0 -23 -10 -40 -22
-17 -12 -37 -23 -44 -24 -7 -1 -29 -17 -48 -36 -20 -18 -41 -33 -48 -33 -7 0
-24 -24 -39 -54 -32 -62 -38 -48 -8 17 40 88 165 195 280 240 136 54 278 70
430 51z m470 -14 c0 -8 -7 -15 -15 -15 -8 0 -15 7 -15 15 0 8 7 15 15 15 8 0
15 -7 15 -15z m-1150 -35 c0 -5 -4 -10 -10 -10 -5 0 -10 5 -10 10 0 6 5 10 10
10 6 0 10 -4 10 -10z m-536 -29 c18 -19 17 -19 -19 -8 -30 9 -34 12 -19 18 11
4 19 8 20 8 0 1 9 -8 18 -18z m2306 9 c0 -5 -4 -10 -10 -10 -5 0 -10 5 -10 10
0 6 5 10 10 10 6 0 10 -4 10 -10z m-290 -10 c0 -5 -2 -10 -4 -10 -3 0 -8 5
-11 10 -3 6 -1 10 4 10 6 0 11 -4 11 -10z m180 -30 c0 -5 -4 -10 -10 -10 -5 0
-10 5 -10 10 0 6 5 10 10 10 6 0 10 -4 10 -10z m-1810 -15 c0 -8 -4 -15 -9
-15 -13 0 -22 16 -14 24 11 11 23 6 23 -9z m-130 -26 c0 -6 -4 -7 -10 -4 -5 3
-10 11 -10 16 0 6 5 7 10 4 6 -3 10 -11 10 -16z m1562 -21 c-15 -15 -26 -4
-18 18 5 13 9 15 18 6 9 -9 9 -15 0 -24z m-1172 -33 c-7 -9 -15 -13 -19 -10
-3 3 1 10 9 15 21 14 24 12 10 -5z m1245 -5 c3 -5 1 -10 -4 -10 -6 0 -11 5
-11 10 0 6 2 10 4 10 3 0 8 -4 11 -10z m-235 -113 c-3 -1 -30 24 -60 58 l-54
60 59 -57 c32 -32 57 -59 55 -61z m-1815 89 c79 -21 135 -54 201 -120 167
-167 189 -413 53 -606 -93 -133 -261 -212 -417 -195 -134 14 -230 62 -320 160
-82 90 -107 157 -107 287 0 53 5 102 10 107 7 7 9 -16 8 -67 -2 -88 4 -123 18
-101 13 20 11 31 -3 23 -9 -5 -9 -3 1 9 7 9 17 15 21 12 5 -3 12 0 16 6 5 9
-1 10 -20 5 -15 -4 -26 -2 -26 4 0 9 14 14 33 11 5 -1 5 3 2 9 -4 6 -13 9 -21
6 -8 -3 -14 -1 -14 4 0 6 4 10 9 10 5 0 12 7 15 16 3 8 2 13 -3 10 -13 -9 -23
25 -11 39 5 6 6 15 2 20 -4 4 3 3 15 -4 16 -8 24 -8 29 1 4 7 3 8 -4 4 -6 -4
-16 4 -23 16 -11 20 -11 22 3 10 11 -9 18 -10 23 -2 3 5 1 10 -4 10 -19 0 -12
22 8 27 21 5 35 29 25 44 -3 5 0 8 8 7 7 -2 12 5 12 14 -1 9 4 14 11 12 7 -3
16 0 21 7 5 8 3 10 -7 4 -8 -5 6 12 31 37 25 25 48 44 51 42 4 -2 9 6 13 19 5
17 8 19 15 9 6 -10 11 -6 19 16 10 30 60 64 122 83 40 12 131 10 185 -5z
m2560 -11 c15 -14 25 -36 25 -53 0 -29 -33 -82 -50 -82 -5 0 2 11 15 25 15 14
25 35 25 52 -1 27 -1 27 -15 9 -14 -19 -15 -19 -15 -1 0 18 -1 18 -13 2 -7
-10 -41 -28 -77 -42 -36 -13 -101 -40 -145 -59 -73 -33 -77 -34 -50 -11 17 14
49 38 72 52 23 15 52 45 64 66 36 66 120 87 164 42z m-1388 -11 c-3 -3 -12 -4
-19 -1 -8 3 -5 6 6 6 11 1 17 -2 13 -5z m-464 -41 c-14 -18 -27 -32 -29 -30
-9 8 27 64 40 64 10 0 7 -10 -11 -34z m781 29 c3 -5 -1 -9 -9 -9 -8 0 -15 4
-15 9 0 4 4 8 9 8 6 0 12 -4 15 -8z m-1074 -23 c0 -6 -4 -7 -10 -4 -5 3 -10
11 -10 16 0 6 5 7 10 4 6 -3 10 -11 10 -16z m960 -3 c115 -18 224 -53 288 -95
80 -51 94 -71 99 -145 7 -79 -6 -89 -66 -55 -48 26 -48 38 -1 14 27 -14 34
-15 41 -3 16 25 9 85 -14 119 -45 67 -277 155 -353 134 -23 -7 -25 -9 -10 -13
15 -3 16 -6 5 -13 -12 -7 -12 -9 1 -9 13 0 13 -1 0 -10 -10 -6 -11 -10 -2 -10
22 0 13 -20 -10 -21 -21 -1 -21 -2 -3 -7 l20 -5 -20 -7 c-16 -6 -11 -9 25 -18
38 -9 30 -9 -50 -5 -52 3 -131 0 -174 -6 -80 -11 -123 -7 -48 5 23 3 41 9 40
13 0 3 1 11 2 16 6 25 4 41 -5 47 -6 5 -5 8 3 8 7 0 10 5 7 10 -3 6 -1 10 4
10 6 0 11 5 11 11 0 11 -42 7 -135 -13 -63 -13 -185 -69 -205 -93 -14 -17 -14
-18 10 -5 l25 13 -20 -24 c-12 -13 -27 -33 -35 -44 -14 -19 -14 -19 5 -4 11 9
27 20 35 24 12 6 12 5 3 -5 -13 -14 -6 -43 8 -34 17 10 9 -5 -15 -31 -14 -15
-30 -24 -35 -20 -6 3 -11 2 -11 -4 0 -21 20 -20 66 6 27 14 45 21 39 16 -5 -6
-36 -25 -67 -43 l-57 -31 -7 36 c-9 50 1 99 27 136 59 84 240 148 469 168 8 0
58 -6 110 -13z m185 4 c8 -13 -5 -13 -25 0 -13 8 -13 10 2 10 9 0 20 -4 23
-10z m-1065 -10 c0 -5 -4 -10 -10 -10 -5 0 -10 5 -10 10 0 6 5 10 10 10 6 0
10 -4 10 -10z m1562 -15 c0 -5 -5 -11 -11 -13 -6 -2 -11 4 -11 13 0 9 5 15 11
13 6 -2 11 -8 11 -13z m638 1 c0 -8 -4 -17 -9 -21 -12 -7 -24 12 -16 25 9 15
25 12 25 -4z m-2346 -47 c-9 -16 -20 -10 -32 16 -18 38 -15 41 13 15 13 -12
22 -27 19 -31z m2446 1 c0 -11 -7 -20 -15 -20 -15 0 -21 21 -8 33 12 13 23 7
23 -13z m-680 -10 c0 -5 -4 -10 -10 -10 -5 0 -10 5 -10 10 0 6 5 10 10 10 6 0
10 -4 10 -10z m-1810 -40 c0 -5 -2 -10 -4 -10 -3 0 -8 5 -11 10 -3 6 -1 10 4
10 6 0 11 -4 11 -10z m100 -84 c0 -12 -5 -7 -19 24 -11 24 -11 24 3 6 9 -11
16 -24 16 -30z m2535 24 c0 -8 -8 -16 -17 -18 -13 -2 -18 3 -18 18 0 15 5 20
18 18 9 -2 17 -10 17 -18z m-517 -13 c2 -12 -3 -17 -17 -17 -12 0 -21 6 -21
13 0 31 32 34 38 4z m-1018 -6 c34 -9 34 -9 -15 -10 -36 -1 -46 -4 -35 -11 12
-7 8 -10 -15 -11 -26 0 -27 -2 -10 -9 l20 -9 -20 -1 c-19 -1 -19 -2 -2 -9 22
-8 24 -21 5 -32 -11 -7 -11 -9 1 -9 10 0 11 -3 2 -14 -9 -11 -9 -15 1 -19 10
-4 10 -7 -1 -15 -11 -8 -9 -11 8 -17 12 -3 19 -10 17 -14 -3 -4 35 -17 83 -29
102 -26 102 -25 98 -11 -1 6 15 17 36 25 20 7 37 10 37 6 0 -12 -14 -28 -35
-41 -18 -11 -17 -12 10 -6 17 3 37 14 46 25 9 11 19 16 23 13 3 -4 6 0 6 8 0
8 9 20 20 27 34 21 23 -7 -19 -49 -48 -48 -72 -50 -214 -12 -139 36 -239 36
-362 -2 -160 -50 -201 -46 -251 27 -22 32 -25 41 -14 51 10 9 11 9 6 -1 -12
-20 75 -102 108 -102 31 0 32 3 9 21 -11 10 -14 10 -9 2 10 -18 -1 -16 -35 4
-33 19 -39 38 -10 30 14 -3 17 0 14 14 -5 18 -33 16 -33 -3 0 -6 -7 -5 -16 3
-14 11 -13 14 11 26 27 15 25 39 -3 28 -13 -5 -12 -2 3 15 10 11 25 20 33 20
12 0 12 -3 -4 -15 -18 -13 -18 -14 6 -9 20 5 22 3 10 -5 -9 -7 -10 -11 -3 -11
6 0 15 5 18 10 12 19 25 10 20 -12 -4 -18 1 -27 22 -41 19 -12 21 -17 8 -13
-20 6 -20 6 -1 -9 11 -8 24 -15 30 -15 5 0 1 -7 -10 -16 -16 -13 -16 -15 -2
-10 10 3 54 15 98 27 52 14 76 25 68 31 -7 4 -8 8 -2 8 6 0 11 6 12 13 0 6 3
21 5 32 10 41 11 80 4 93 -5 7 -3 13 5 14 7 0 -9 4 -37 7 l-50 7 55 11 c57 12
189 9 250 -6z m330 -53 c0 -26 -2 -27 -25 -16 -28 13 -34 30 -9 26 10 -2 19 3
22 11 3 10 0 12 -13 7 -13 -5 -16 -2 -11 10 3 8 6 21 6 27 1 24 29 -39 30 -65z
m310 12 c0 -5 -4 -10 -10 -10 -5 0 -10 5 -10 10 0 6 5 10 10 10 6 0 10 -4 10
-10z m790 -10 c0 -5 -5 -10 -11 -10 -5 0 -7 5 -4 10 3 6 8 10 11 10 2 0 4 -4
4 -10z m-580 -30 c0 -5 -5 -10 -11 -10 -5 0 -7 5 -4 10 3 6 8 10 11 10 2 0 4
-4 4 -10z m210 -36 c0 -17 -22 -14 -28 4 -2 7 3 12 12 12 9 0 16 -7 16 -16z
m-342 -12 c-11 -2 -15 -9 -11 -20 4 -13 0 -11 -16 5 -28 29 -27 30 12 24 17
-3 24 -7 15 -9z m-1711 -24 c-3 -8 -6 -5 -6 6 -1 11 2 17 5 13 3 -3 4 -12 1
-19z m2163 12 c0 -5 -4 -10 -10 -10 -5 0 -10 5 -10 10 0 6 5 10 10 10 6 0 10
-4 10 -10z m130 -75 c6 -40 18 -77 28 -87 9 -9 44 -21 77 -26 l60 -9 -50 -7
c-95 -13 -105 -25 -121 -141 l-8 -50 -8 68 c-13 105 -15 108 -113 123 l-50 7
59 11 c74 14 93 37 102 124 4 34 8 61 10 59 2 -1 8 -34 14 -72z m-1950 56 c0
-5 -9 -30 -21 -55 -25 -56 -21 -91 22 -218 16 -47 29 -94 29 -103 0 -10 9 -33
21 -52 16 -25 20 -43 15 -71 l-6 -37 15 30 c13 25 14 26 9 5 -12 -48 -22 -57
-29 -27 -4 15 -5 34 -1 42 3 8 -3 30 -14 47 -10 18 -24 56 -30 83 -6 28 -22
76 -36 107 -13 31 -27 86 -31 122 -5 55 -3 69 16 100 21 34 41 47 41 27z
m1004 -47 c9 -24 7 -46 -4 -39 -5 3 -10 1 -10 -6 0 -10 -3 -10 -11 -2 -13 13
-4 63 10 63 5 0 12 -7 15 -16z m-975 -8 c8 -10 9 -21 0 -42 l-11 -29 -15 28
c-22 43 -2 77 26 43z m1721 -16 c0 -5 -4 -10 -10 -10 -5 0 -10 5 -10 10 0 6 5
10 10 10 6 0 10 -4 10 -10z m-2073 -32 c-3 -7 -5 -2 -5 12 0 14 2 19 5 13 2
-7 2 -19 0 -25z m841 5 c-9 -11 -7 -12 7 -7 12 5 16 4 12 -3 -5 -7 0 -9 13 -6
11 3 18 9 15 13 -3 5 -1 11 5 15 5 3 10 -1 10 -11 0 -13 3 -14 15 -4 12 10 15
10 15 0 0 -10 3 -10 15 0 12 10 15 10 15 0 0 -8 9 -11 25 -8 32 7 42 -8 15
-22 -11 -6 -20 -8 -20 -5 0 4 -18 -4 -40 -16 -21 -12 -37 -26 -34 -31 3 -4 1
-8 -4 -8 -14 0 -8 -108 6 -122 11 -11 12 -10 7 2 -7 19 24 61 31 43 3 -7 12
-13 20 -13 9 0 13 -3 11 -7 -3 -5 20 -9 49 -11 44 -2 63 3 100 24 55 32 52 40
-7 18 -38 -13 -52 -14 -104 -2 -33 7 -64 11 -70 9 -5 -1 -7 0 -3 4 3 4 8 5 11
3 8 -5 47 34 41 43 -2 4 5 6 16 4 11 -2 18 0 15 5 -8 13 11 21 58 24 23 2 51
7 61 11 15 7 17 5 11 -6 -6 -11 -5 -12 6 -1 7 6 17 12 22 12 4 0 5 -6 1 -12
-5 -9 -2 -9 9 1 20 16 23 1 5 -18 -7 -8 0 -5 17 5 16 11 26 13 22 7 -5 -7 -4
-13 1 -13 13 0 4 -139 -13 -200 -9 -30 -17 -63 -18 -72 -1 -9 -3 -15 -6 -13
-8 8 -31 -17 -25 -27 3 -5 12 -4 20 3 13 10 13 8 4 -16 -8 -21 -7 -39 6 -77 8
-26 14 -53 12 -60 -3 -7 -10 9 -17 35 -17 58 -32 63 -20 6 6 -23 7 -44 4 -47
-3 -3 -5 1 -5 9 0 9 -7 24 -14 35 -13 16 -13 13 0 -25 16 -48 12 -65 -11 -35
-8 10 -15 15 -15 10 0 -5 -7 -3 -15 4 -14 11 -14 10 -5 -16 9 -25 8 -27 -3
-12 -10 13 -17 14 -25 6 -8 -8 -15 -8 -27 2 -8 7 -18 10 -22 6 -4 -3 -18 4
-31 16 l-25 23 13 -25 13 -25 -29 25 c-16 14 -22 17 -15 7 8 -9 12 -20 9 -23
-3 -3 -21 17 -41 44 -35 49 -35 49 -13 62 11 8 25 14 31 15 5 0 12 17 16 37 6
38 -2 52 -41 73 -11 6 -11 4 2 -11 23 -26 17 -59 -11 -58 -11 0 -21 -3 -21 -6
0 -4 -14 -13 -31 -20 -26 -11 -36 -11 -63 2 -17 9 -39 19 -49 22 -24 8 -33 35
-18 58 11 17 10 18 -7 9 -15 -8 -20 -21 -19 -56 0 -25 4 -45 9 -45 4 0 17 -9
28 -20 11 -11 20 -18 20 -15 0 3 10 -3 22 -15 18 -16 19 -23 9 -33 -10 -10
-11 -8 -6 8 3 11 -1 7 -8 -9 -12 -23 -15 -25 -21 -11 -3 9 -3 22 0 28 3 7 -4
0 -16 -16 -12 -15 -26 -25 -31 -21 -5 3 -15 2 -21 -3 -7 -4 -20 -8 -29 -8 -9
0 -23 -6 -32 -14 -13 -10 -17 -10 -17 -1 0 9 -4 9 -13 2 -8 -7 -18 -7 -27 -2
-9 5 -19 5 -27 -2 -16 -13 -17 4 -1 20 9 9 9 12 1 12 -7 0 -15 -10 -18 -21 -6
-17 -9 -19 -16 -8 -6 10 -9 8 -9 -8 0 -13 -4 -23 -10 -23 -5 0 -7 26 -3 65 5
54 3 65 -8 60 -8 -3 -23 -23 -33 -45 -10 -22 -23 -37 -27 -34 -13 7 -11 66 2
84 8 11 9 5 5 -25 -5 -38 -4 -39 9 -15 13 25 15 137 2 157 -21 33 -44 243 -27
243 4 0 6 9 3 21 -5 16 -2 20 14 17 11 -1 28 4 38 12 15 12 17 12 10 1 -6 -11
-4 -13 11 -6 23 10 129 6 129 -5 0 -1 11 -4 24 -6 31 -6 39 -13 23 -23 -9 -5
-5 -11 13 -19 35 -16 25 -28 -33 -42 -42 -10 -57 -9 -108 9 -56 19 -57 19 -34
0 51 -39 90 -51 143 -46 29 4 56 13 63 21 6 9 14 13 17 9 4 -3 11 6 16 20 5
14 15 28 20 32 16 10 13 22 -11 44 -21 20 -21 21 -3 43 l19 23 -23 -22 c-18
-16 -29 -19 -45 -13 -11 4 -37 12 -56 17 l-35 9 32 5 c21 4 30 2 26 -5 -5 -7
-2 -7 8 0 8 6 32 11 54 10 22 -1 48 2 57 6 14 7 16 5 12 -9 -3 -12 -1 -11 6 3
7 11 18 21 26 21 10 0 11 -4 2 -14z m1786 1 c12 -5 13 -9 3 -19 -9 -9 -14 -10
-19 -1 -16 23 -10 30 16 20z m-724 -14 c0 -5 -4 -10 -10 -10 -5 0 -10 5 -10
10 0 6 5 10 10 10 6 0 10 -4 10 -10z m435 -10 c-3 -5 -12 -10 -18 -10 -7 0 -6
4 3 10 19 12 23 12 15 0z m-835 -15 c0 -8 -4 -15 -10 -15 -5 0 -10 7 -10 15 0
8 5 15 10 15 6 0 10 -7 10 -15z m-1193 -27 c-3 -7 -5 -2 -5 12 0 14 2 19 5 13
2 -7 2 -19 0 -25z m53 -15 c-11 -17 -11 -17 -6 0 3 10 7 26 7 35 1 15 2 15 6
0 2 -10 -1 -25 -7 -35z m-1413 15 c-3 -8 -6 -5 -6 6 -1 11 2 17 5 13 3 -3 4
-12 1 -19z m983 -18 c0 -5 -5 -10 -11 -10 -5 0 -7 5 -4 10 3 6 8 10 11 10 2 0
4 -4 4 -10z m2615 0 c3 -5 1 -10 -4 -10 -6 0 -11 5 -11 10 0 6 2 10 4 10 3 0
8 -4 11 -10z m-2228 -32 c-3 -7 -5 -2 -5 12 0 14 2 19 5 13 2 -7 2 -19 0 -25z
m1263 22 c0 -5 -4 -10 -10 -10 -5 0 -10 5 -10 10 0 6 5 10 10 10 6 0 10 -4 10
-10z m-2626 -36 c3 -8 2 -12 -4 -9 -6 3 -10 10 -10 16 0 14 7 11 14 -7z m2363
-6 c-3 -8 -6 -5 -6 6 -1 11 2 17 5 13 3 -3 4 -12 1 -19z m523 12 c0 -5 -2 -10
-4 -10 -3 0 -8 5 -11 10 -3 6 -1 10 4 10 6 0 11 -4 11 -10z m359 -11 c-16 -10
-23 -4 -14 10 3 6 11 8 17 5 6 -4 5 -9 -3 -15z m114 -4 c-3 -9 -8 -14 -10 -11
-3 3 -2 9 2 15 9 16 15 13 8 -4z m532 -1 c-44 -33 -396 -221 -597 -318 -117
-57 -246 -120 -285 -140 -40 -20 -73 -35 -73 -32 0 11 112 72 421 230 190 96
385 198 434 225 87 49 145 69 100 35z m-1080 -3 c3 -5 1 -12 -5 -16 -5 -3 -10
1 -10 9 0 18 6 21 15 7z m-1411 -26 c-4 -8 -2 -15 3 -15 5 0 9 -8 10 -17 2
-22 9 -57 18 -98 6 -24 5 -28 -5 -18 -7 6 -14 22 -15 35 -2 13 -10 43 -19 68
-12 34 -12 46 -3 52 17 11 17 10 11 -7z m-364 -10 c0 -8 -7 -15 -15 -15 -8 0
-15 7 -15 15 0 8 7 15 15 15 8 0 15 -7 15 -15z m1718 -22 c-4 -22 -22 -20 -26
1 -2 10 3 16 13 16 10 0 15 -7 13 -17z m372 -7 c0 -3 -4 -8 -10 -11 -5 -3 -10
-1 -10 4 0 6 5 11 10 11 6 0 10 -2 10 -4z m-1860 -14 c0 -13 -12 -22 -22 -16
-10 6 -1 24 13 24 5 0 9 -4 9 -8z m1320 -2 c0 -5 -4 -10 -10 -10 -5 0 -10 5
-10 10 0 6 5 10 10 10 6 0 10 -4 10 -10z m-1608 -22 c-7 -7 -12 -8 -12 -2 0
14 12 26 19 19 2 -3 -1 -11 -7 -17z m198 -4 c0 -8 -5 -12 -10 -9 -6 4 -8 11
-5 16 9 14 15 11 15 -7z m1730 -18 c0 -8 -8 -14 -19 -13 -11 0 -17 6 -14 14 7
18 33 17 33 -1z m850 -42 c-74 -30 -205 -86 -290 -123 -85 -38 -166 -71 -180
-75 l-25 -6 25 12 c191 90 564 247 590 247 8 0 -46 -25 -120 -55z m-3796 23
c16 -25 -16 -56 -38 -37 -19 15 -20 32 -4 48 15 15 28 11 42 -11z m3983 8 c0
-8 -4 -12 -8 -9 -4 2 -11 -1 -15 -7 -4 -7 -3 -9 3 -6 14 9 51 -23 55 -46 3
-16 -66 -42 -497 -187 -275 -92 -558 -189 -630 -214 -71 -26 -125 -43 -120
-37 39 38 1146 516 1206 521 3 0 6 -7 6 -15z m-1217 -5 c0 -5 -4 -10 -10 -10
-5 0 -10 5 -10 10 0 6 5 10 10 10 6 0 10 -4 10 -10z m670 -16 c0 -8 -5 -12
-10 -9 -6 4 -8 11 -5 16 9 14 15 11 15 -7z m-970 -4 c0 -5 -2 -10 -4 -10 -3 0
-8 5 -11 10 -3 6 -1 10 4 10 6 0 11 -4 11 -10z m-1120 -25 c0 -8 -4 -15 -10
-15 -5 0 -10 7 -10 15 0 8 5 15 10 15 6 0 10 -7 10 -15z m1650 -5 c0 -5 -7
-10 -15 -10 -8 0 -15 5 -15 10 0 6 7 10 15 10 8 0 15 -4 15 -10z m-626 -60 l7
-35 -16 34 c-17 37 -22 79 -6 51 5 -8 12 -31 15 -50z m-2525 36 c10 -12 8 -17
-7 -25 -16 -8 -21 -7 -26 5 -12 31 12 45 33 20z m388 -8 c-3 -8 -6 -5 -6 6 -1
11 2 17 5 13 3 -3 4 -12 1 -19z m3033 -3 c0 -8 -4 -15 -9 -15 -13 0 -22 16
-14 24 11 11 23 6 23 -9z m-2190 -25 c0 -5 -2 -10 -4 -10 -3 0 -8 5 -11 10 -3
6 -1 10 4 10 6 0 11 -4 11 -10z m1290 -59 c0 -28 -17 3 -23 39 l-6 35 14 -30
c8 -16 14 -37 15 -44z m1637 53 c-3 -3 -12 -4 -19 -1 -8 3 -5 6 6 6 11 1 17
-2 13 -5z m-1497 -20 c0 -17 -22 -14 -28 4 -2 7 3 12 12 12 9 0 16 -7 16 -16z
m270 2 c0 -3 -4 -8 -10 -11 -5 -3 -10 -1 -10 4 0 6 5 11 10 11 6 0 10 -2 10
-4z m-2130 -16 c0 -5 -4 -10 -10 -10 -5 0 -10 5 -10 10 0 6 5 10 10 10 6 0 10
-4 10 -10z m625 -25 c0 -25 -4 -30 -24 -30 -32 0 -49 28 -31 50 7 9 23 15 34
13 16 -2 21 -10 21 -33z m221 -2 c-8 -15 -15 -25 -16 -21 0 12 23 58 27 54 3
-2 -2 -17 -11 -33z m1624 21 c0 -17 -22 -14 -28 4 -2 7 3 12 12 12 9 0 16 -7
16 -16z m-2170 -28 c-14 -14 -24 0 -16 21 6 15 8 15 16 3 6 -9 5 -19 0 -24z
m1660 19 c17 -20 5 -45 -20 -45 -11 0 -23 7 -26 15 -6 15 11 45 26 45 4 0 13
-7 20 -15z m-1460 -10 c0 -8 -7 -15 -15 -15 -8 0 -15 7 -15 15 0 8 7 15 15 15
8 0 15 -7 15 -15z m1870 0 c0 -8 -7 -15 -15 -15 -16 0 -20 12 -8 23 11 12 23
8 23 -8z m1045 6 c-3 -5 -20 -12 -38 -16 -111 -23 -801 -217 -960 -269 -106
-35 -193 -63 -195 -61 -4 3 226 88 348 128 52 17 98 36 101 41 4 5 14 6 24 3
9 -4 14 -3 11 2 -6 9 242 95 304 105 26 4 30 4 15 -3 -31 -15 -9 -13 59 5 44
12 276 62 334 73 2 1 1 -3 -3 -8z m-1736 -61 c0 -13 -1 -13 -8 0 -5 8 -12 26
-15 40 l-7 25 15 -25 c9 -14 15 -32 15 -40z m-2379 20 c0 -5 -4 -10 -10 -10
-5 0 -10 5 -10 10 0 6 5 10 10 10 6 0 10 -4 10 -10z m844 1 c3 -5 -1 -14 -10
-21 -11 -10 -18 -10 -27 -1 -9 9 -9 14 3 21 19 12 27 12 34 1z m1190 -33 c9
-17 14 -33 11 -36 -2 -3 -7 3 -11 12 -3 9 -10 13 -15 10 -5 -3 -6 3 -2 12 4
12 3 15 -5 10 -8 -5 -10 -2 -6 8 8 22 10 21 28 -16z m37 -9 c11 -23 16 -38 10
-35 -8 6 -41 63 -41 73 0 13 13 -3 31 -38z m-451 -29 c-4 -30 -8 -49 -9 -42 0
7 -5 11 -11 7 -5 -3 -3 16 5 42 8 26 15 50 15 52 0 2 2 2 3 0 2 -2 1 -29 -3
-59z m1720 40 c-8 -5 -19 -10 -25 -10 -5 0 -3 5 5 10 8 5 20 10 25 10 6 0 3
-5 -5 -10z m-3513 -16 c8 -22 -18 -37 -36 -20 -7 8 -10 19 -7 25 10 16 36 13
43 -5z m601 -1 c-2 -10 -10 -18 -18 -18 -8 0 -16 8 -18 18 -2 12 3 17 18 17
15 0 20 -5 18 -17z m3672 6 c0 -8 5 -7 15 1 18 15 17 15 38 -26 l16 -30 -137
-18 c-289 -37 -563 -93 -986 -200 -77 -19 -144 -32 -150 -29 -13 9 117 55 334
119 320 95 638 170 780 184 41 4 78 8 83 9 4 0 7 -4 7 -10z m-2636 -5 c14 -5
14 -7 0 -22 -13 -13 -17 -13 -24 -2 -5 8 -6 18 -4 22 6 10 8 10 28 2z m428
-16 c-7 -7 -12 -8 -12 -2 0 14 12 26 19 19 2 -3 -1 -11 -7 -17z m1408 17 c0
-6 -56 -35 -67 -35 -4 1 8 9 27 20 39 22 40 22 40 15z m-3003 -31 c8 -21 -13
-42 -28 -27 -13 13 -5 43 11 43 6 0 13 -7 17 -16z m2173 -14 c0 -5 -2 -10 -4
-10 -3 0 -8 5 -11 10 -3 6 -1 10 4 10 6 0 11 -4 11 -10z m380 -6 c0 -17 -22
-14 -28 4 -2 7 3 12 12 12 9 0 16 -7 16 -16z m96 -11 c-10 -10 -19 5 -10 18 6
11 8 11 12 0 2 -7 1 -15 -2 -18z m-1822 -4 c-3 -5 -10 -7 -15 -3 -5 3 -7 10
-3 15 3 5 10 7 15 3 5 -3 7 -10 3 -15z m160 0 c-3 -5 -10 -7 -15 -3 -5 3 -7
10 -3 15 3 5 10 7 15 3 5 -3 7 -10 3 -15z m804 -17 c1 -5 -7 -12 -20 -16 -30
-8 -182 -8 -202 0 -21 8 -20 22 2 27 34 7 216 -1 220 -11z m-508 0 c0 -5 -13
-21 -30 -37 -34 -32 -36 -49 -16 -91 19 -39 29 -74 21 -74 -3 0 -17 25 -30 55
-26 57 -39 64 -78 43 -12 -7 -34 -11 -50 -9 -18 2 -38 -7 -59 -24 -18 -15 -56
-38 -86 -51 -29 -13 -61 -32 -70 -42 -13 -14 -47 -23 -132 -36 -158 -23 -214
-40 -228 -68 -8 -18 -11 -19 -11 -6 -2 35 61 61 240 98 74 15 109 27 126 44
12 12 40 28 61 35 22 8 59 29 82 47 24 19 54 34 67 34 45 0 104 25 135 58 30
30 58 42 58 24z m1110 -18 c0 -16 -16 -19 -25 -4 -8 13 4 32 16 25 5 -4 9 -13
9 -21z m-2734 5 c10 -17 -13 -36 -27 -22 -12 12 -4 33 11 33 5 0 12 -5 16 -11z
m4151 5 c-3 -3 -12 -4 -19 -1 -8 3 -5 6 6 6 11 1 17 -2 13 -5z m40 0 c-3 -3
-12 -4 -19 -1 -8 3 -5 6 6 6 11 1 17 -2 13 -5z m-3167 -25 c0 -5 -7 -9 -15 -9
-15 0 -20 12 -9 23 8 8 24 -1 24 -14z m881 4 c43 -23 187 -22 239 0 32 14 36
14 51 -4 16 -19 17 -19 23 3 l7 23 13 -25 c20 -36 26 -112 7 -82 -6 10 -10 4
-15 -19 l-6 -32 -21 24 -21 24 6 -40 6 -40 -14 35 -14 35 -1 -38 c-1 -21 -5
-36 -10 -32 -5 3 -13 -5 -17 -17 -7 -22 -7 -22 -15 -3 l-8 20 0 -20 c-1 -17
-3 -17 -11 -5 -8 13 -10 12 -10 -3 0 -14 -5 -17 -22 -12 -16 6 -20 4 -15 -9 3
-8 2 -18 -3 -21 -5 -3 -12 7 -16 22 -10 49 -12 49 -14 3 l-2 -45 -11 35 -11
35 -5 -35 -4 -35 -12 45 -13 45 -1 -39 c-1 -48 -9 -43 -20 15 l-9 44 -2 -45
c-2 -42 -3 -43 -10 -15 -4 17 -8 24 -9 17 -2 -29 -21 2 -22 36 0 29 -2 33 -9
17 -4 -11 -6 -31 -3 -44 4 -16 2 -22 -6 -17 -6 4 -12 31 -12 59 -2 49 -2 50
-9 17 l-7 -35 -2 35 c-2 19 -5 28 -8 20 -15 -45 -15 -45 -23 -23 -5 12 -5 36
0 54 5 18 8 34 6 37 -4 3 -20 -43 -29 -83 -3 -14 -5 -12 -6 8 -1 19 -5 26 -13
21 -17 -11 -2 66 17 85 11 12 15 12 15 2 0 -11 3 -11 15 -1 13 11 14 10 9 -6
-6 -16 -4 -16 15 4 26 26 20 26 62 5z m578 -5 c46 -5 59 -10 80 -37 18 -22 35
-31 54 -31 16 0 40 -9 54 -20 14 -11 40 -22 59 -26 18 -3 44 -16 58 -29 14
-13 27 -21 29 -19 4 4 203 -67 287 -102 78 -33 144 -71 184 -106 33 -29 40
-41 41 -74 1 -27 13 -58 40 -98 92 -144 140 -280 243 -691 6 -22 42 -118 81
-212 68 -167 97 -270 89 -309 -2 -11 -14 13 -26 56 -13 41 -38 111 -56 155
-75 178 -117 297 -151 425 -19 74 -48 178 -62 230 -29 102 -124 300 -173 362
-26 32 -29 40 -19 62 31 67 -99 147 -405 248 -100 33 -121 37 -136 26 -55 -40
-162 -133 -209 -182 -30 -30 -59 -52 -64 -49 -6 3 -7 1 -3 -5 4 -7 -23 -33
-66 -65 -84 -63 -153 -134 -173 -180 -8 -18 -14 -26 -15 -19 0 18 32 79 85
161 25 38 45 74 45 81 0 6 27 63 61 128 58 112 95 215 83 233 -13 22 18 6 32
-17 16 -24 16 -29 0 -80 -9 -30 -21 -52 -27 -49 -12 8 -11 -2 3 -28 10 -20 10
-21 -5 -8 -15 11 -19 9 -34 -18 -10 -17 -22 -31 -26 -31 -5 0 -5 -4 -2 -10 3
-5 11 -10 16 -10 6 0 7 5 4 10 -3 6 -2 10 4 10 5 0 13 9 16 21 4 11 9 18 11
16 7 -7 -28 -77 -38 -77 -5 0 -6 -5 -2 -12 5 -8 2 -9 -11 -4 -16 6 -16 4 -4
-10 13 -16 12 -16 -11 -4 -24 13 -24 12 -10 -5 14 -17 13 -18 -4 -12 -15 6
-17 5 -8 -6 12 -14 7 -27 -10 -27 -5 0 -6 5 -2 12 4 7 3 8 -4 4 -6 -4 -8 -14
-5 -23 5 -12 3 -14 -8 -8 -11 7 -11 5 1 -10 9 -11 10 -16 3 -11 -8 4 -13 2
-13 -5 0 -7 -12 -26 -27 -43 -27 -29 -27 -29 15 4 23 18 42 36 42 39 0 15 74
81 86 77 14 -5 38 17 28 26 -3 4 35 41 85 84 85 73 103 94 82 94 -4 0 -6 11
-3 25 2 14 6 25 9 25 10 0 48 -24 55 -34 4 -6 10 -4 14 8 8 22 -10 36 -47 36
-14 0 -36 11 -49 25 -33 35 -47 31 -53 -17 -3 -22 -15 -54 -27 -70 -11 -15
-17 -28 -13 -28 16 0 53 67 53 95 0 27 1 28 20 10 46 -41 29 -87 -59 -162 -39
-34 -51 -40 -60 -29 -8 10 -7 17 4 26 9 7 14 19 11 26 -3 8 0 13 6 11 6 -1 13
4 16 12 3 9 0 11 -7 7 -6 -4 -3 7 9 26 26 42 25 82 -1 125 -24 38 -53 53 -104
53 -31 0 -45 13 -45 42 0 7 4 7 13 0 6 -5 36 -12 66 -14z m1579 15 c-10 -2
-26 -2 -35 0 -10 3 -2 5 17 5 19 0 27 -2 18 -5z m-2299 -32 c-4 -14 -10 -35
-13 -46 -2 -11 -4 1 -3 26 1 27 7 46 13 46 8 0 9 -9 3 -26z m2214 22 c-7 -2
-21 -2 -30 0 -10 3 -4 5 12 5 17 0 24 -2 18 -5z m-1038 -13 c-3 -5 -11 -10
-16 -10 -6 0 -7 5 -4 10 3 6 11 10 16 10 6 0 7 -4 4 -10z m958 3 c-7 -2 -21
-2 -30 0 -10 3 -4 5 12 5 17 0 24 -2 18 -5z m-2712 -26 c-13 -13 -26 -3 -16
12 3 6 11 8 17 5 6 -4 6 -10 -1 -17z m1090 -4 c-12 -20 -14 -14 -5 12 4 9 9
14 11 11 3 -2 0 -13 -6 -23z m1552 20 c-7 -2 -21 -2 -30 0 -10 3 -4 5 12 5 17
0 24 -2 18 -5z m-3693 -13 c0 -5 -7 -10 -15 -10 -8 0 -15 5 -15 10 0 6 7 10
15 10 8 0 15 -4 15 -10z m3615 0 c-16 -4 -39 -8 -50 -8 -16 0 -15 2 5 8 14 4
36 8 50 8 22 0 22 -1 -5 -8z m-2119 -37 c4 -21 20 -69 36 -107 30 -73 38 -121
12 -73 -8 15 -19 25 -24 22 -6 -4 -10 0 -10 7 0 7 -9 29 -19 49 -33 62 -40
139 -12 139 6 0 13 -17 17 -37z m759 -20 c-4 -26 -15 -80 -26 -122 -10 -41
-19 -86 -19 -100 0 -14 -5 -33 -10 -41 -10 -15 -11 -8 -14 73 -1 23 -3 25 -12
13 -7 -11 -14 -12 -21 -5 -7 7 -10 -21 -9 -93 1 -71 -3 -111 -13 -127 -12 -22
-14 -23 -23 -7 -5 10 -7 20 -4 23 3 4 6 0 7 -8 2 -28 17 37 18 78 1 56 -26
125 -48 121 -13 -3 -17 -20 -21 -90 -3 -47 -2 -84 3 -81 4 2 7 -3 7 -11 0 -9
-22 -33 -49 -53 -63 -48 -92 -107 -97 -193 -2 -36 -1 -56 2 -45 4 11 13 28 22
38 12 14 13 22 4 43 -16 33 -15 47 2 41 8 -3 24 6 37 21 l24 27 -27 -24 c-35
-31 -37 -13 -3 19 15 14 25 18 25 11 0 -8 6 -11 16 -7 14 5 15 4 4 -9 -17 -20
-1 -19 24 2 18 15 18 14 -1 -8 -33 -37 -28 -48 6 -15 l30 28 -20 -88 c-11 -49
-23 -135 -26 -191 -4 -65 -10 -103 -17 -103 -8 0 -7 -3 1 -8 10 -6 18 -62 13
-87 -1 -5 -2 -14 -1 -18 1 -5 -4 -7 -11 -4 -7 2 -12 11 -10 21 2 10 -4 16 -15
17 -16 0 -16 1 2 9 20 8 20 9 -1 9 -17 1 -23 11 -33 54 -6 28 -13 70 -15 92
-2 22 -3 2 -2 -45 3 -77 2 -82 -10 -55 -7 17 -13 36 -14 43 0 7 -4 11 -9 8
-13 -9 -21 50 -22 155 0 134 48 304 81 284 4 -2 17 6 29 19 17 18 25 44 32 97
5 40 11 80 14 89 3 8 33 31 66 50 68 39 107 93 116 160 3 22 10 40 15 40 6 0
8 -18 3 -47z m1272 41 c-3 -3 -12 -4 -19 -1 -8 3 -5 6 6 6 11 1 17 -2 13 -5z
m382 -21 c1 9 5 17 10 17 5 0 7 -10 4 -22 -4 -22 -3 -22 11 2 l15 25 1 -25 c1
-23 2 -23 10 -5 8 19 9 18 11 -5 2 -24 2 -24 6 -2 5 23 36 31 48 12 10 -15 23
-12 28 8 3 9 6 -1 7 -23 l3 -40 7 35 7 35 3 -35 2 -35 8 30 8 30 1 -27 c1 -31
17 -38 24 -10 3 10 5 7 6 -10 l1 -27 -262 0 c-269 0 -373 -7 -653 -41 -88 -11
-178 -22 -200 -25 -22 -2 12 7 75 20 63 14 138 32 165 40 72 22 303 57 326 50
10 -4 19 -2 19 4 0 6 17 10 38 9 20 0 55 3 77 8 22 4 70 8 108 9 37 0 67 4 68
10 0 6 4 1 9 -10 7 -17 9 -17 9 -2z m-3409 -6 c0 -8 -3 -17 -7 -20 -9 -9 -34
13 -27 24 8 14 34 11 34 -4z m1831 1 c9 2 16 -4 16 -12 0 -12 -3 -13 -14 -4
-11 9 -13 4 -7 -30 5 -34 1 -52 -32 -117 -21 -42 -42 -79 -47 -82 -5 -3 1 13
12 35 12 23 18 48 14 58 -3 10 -2 15 3 12 9 -6 12 20 13 110 1 32 4 41 13 35
7 -4 20 -6 29 -5z m1236 6 c-3 -3 -12 -4 -19 -1 -8 3 -5 6 6 6 11 1 17 -2 13
-5z m-2147 -56 c0 -5 -5 -6 -12 -2 -7 4 -8 3 -4 -5 4 -6 11 -9 16 -6 4 3 15
-7 24 -20 10 -14 22 -23 28 -19 6 4 8 3 4 -4 -3 -6 10 -37 29 -69 19 -32 35
-65 35 -73 0 -13 1 -13 10 0 8 12 10 11 10 -7 0 -13 -2 -23 -4 -23 -2 0 -45
55 -96 121 -67 89 -88 124 -79 130 14 8 39 -7 39 -23z m-9 -135 c69 -102 305
-486 328 -533 11 -22 10 -23 -2 -8 -16 20 -28 14 -20 -10 4 -12 1 -11 -13 4
-10 11 -26 19 -34 17 -12 -4 -13 -3 -1 5 10 8 6 12 -18 17 -18 4 -30 9 -27 12
3 3 19 0 36 -5 18 -7 28 -7 25 -2 -4 6 -14 10 -23 10 -13 0 -14 2 -4 9 9 5 4
8 -16 7 -17 -1 -30 -3 -30 -6 1 -20 -4 -21 -18 -4 -8 10 -13 14 -10 7 4 -6 2
-14 -4 -18 -6 -4 -8 -11 -5 -16 9 -13 -9 -11 -24 4 -9 9 -9 5 1 -13 29 -53 42
-68 57 -63 13 4 14 3 2 -5 -12 -9 -12 -14 4 -39 11 -18 12 -22 3 -13 -9 8 -55
78 -103 155 -49 77 -141 221 -205 320 -139 214 -156 242 -146 233 4 -4 19 5
33 20 14 15 19 18 12 8 -13 -18 -12 -19 4 -13 12 5 16 3 11 -4 -4 -7 -1 -10 6
-7 7 2 15 14 17 27 2 15 -1 20 -9 15 -7 -4 -8 -3 -4 5 4 6 12 9 17 6 5 -4 9
-1 9 5 0 6 5 8 10 5 6 -3 10 -11 10 -16 0 -6 -4 -7 -10 -4 -5 3 -10 1 -10 -5
0 -7 7 -10 14 -7 9 4 27 -9 46 -31 30 -36 30 -36 -5 20 -19 31 -35 60 -35 64
0 20 69 -61 131 -153z m-22 84 c155 -215 497 -759 573 -911 39 -78 30 -70 -30
30 -186 304 -334 539 -458 727 -79 119 -140 217 -136 216 4 0 27 -28 51 -62z
m-1494 32 c-3 -4 -12 -6 -20 -3 -8 4 -13 10 -10 15 3 4 12 6 20 3 8 -4 13 -10
10 -15z m845 7 c0 -15 -24 -28 -34 -19 -13 14 -5 33 14 33 11 0 20 -6 20 -14z
m862 -74 c7 -8 41 -28 74 -43 69 -31 76 -44 67 -120 -6 -52 -12 -44 120 -177
56 -57 63 -87 10 -43 -20 16 -40 28 -43 26 -4 -3 -24 10 -45 28 -33 29 -37 35
-26 54 8 17 8 24 -1 29 -7 4 -8 3 -4 -4 8 -14 -3 -15 -23 -3 -7 5 -10 14 -6
20 4 7 -5 30 -19 51 -28 42 -32 55 -16 45 6 -4 10 6 10 22 0 22 2 25 10 13 5
-8 10 -10 10 -4 0 6 -7 18 -16 25 -14 11 -18 10 -30 -6 -14 -18 -13 -68 3
-130 2 -11 -7 -2 -22 20 -19 30 -24 33 -19 15 3 -14 13 -38 21 -54 8 -15 10
-25 4 -21 -22 13 -51 85 -60 147 -5 35 -19 90 -30 122 -26 74 -26 93 -1 42 11
-21 25 -45 32 -54z m2318 48 c287 -25 287 -34 2 -31 -114 1 -304 -3 -422 -8
-489 -24 -508 -22 -200 15 252 30 456 38 620 24z m-4280 -44 c0 -8 -5 -18 -11
-22 -14 -8 -33 11 -25 25 10 16 36 13 36 -3z m848 -19 c2 -11 -3 -17 -16 -17
-24 0 -32 8 -25 26 7 20 37 13 41 -9z m674 -3 c35 -44 274 -419 385 -603 58
-97 118 -194 133 -216 41 -62 44 -73 10 -35 -17 19 -65 91 -107 160 -97 159
-387 622 -425 678 -32 46 -28 58 4 16z m1488 -7 c0 7 7 10 15 7 8 -4 12 -10 9
-15 -5 -9 16 -12 77 -9 85 3 399 -149 399 -194 0 -7 -11 -23 -24 -36 -29 -26
-57 -83 -81 -161 -9 -30 -21 -63 -26 -74 -9 -18 -9 -17 -5 4 3 15 1 20 -5 14
-9 -9 -31 -112 -31 -150 0 -14 -7 -23 -17 -24 -10 0 -11 -2 -3 -6 6 -2 12 -9
12 -14 0 -6 -4 -8 -9 -4 -5 3 -15 -21 -21 -52 -16 -78 -18 -83 -19 -46 -1 17
-7 34 -13 36 -7 3 -4 6 7 6 17 1 17 3 5 11 -8 5 -26 10 -39 10 -16 0 -21 4
-17 15 6 17 -9 21 -17 5 -3 -6 -4 -5 -3 2 2 7 15 13 29 13 36 -1 35 15 0 16
-22 2 -19 3 12 9 30 5 33 8 13 9 -37 2 -46 21 -11 22 15 0 21 3 13 6 -43 14
-44 16 -15 23 24 6 25 8 8 9 -27 1 -31 21 -5 22 10 0 12 3 5 6 -19 7 -16 23 5
24 16 1 16 2 0 6 -10 2 -18 9 -18 14 0 5 8 10 18 10 16 1 16 2 0 6 -10 2 -18
8 -18 13 0 5 8 10 18 12 14 3 13 5 -5 10 -16 4 -23 2 -23 -9 0 -8 -4 -12 -9
-9 -5 3 -12 -1 -15 -10 -3 -8 -2 -12 4 -9 6 3 10 -1 10 -10 0 -9 -4 -13 -10
-10 -5 3 -10 1 -10 -4 0 -6 4 -11 9 -11 4 0 6 -12 3 -27 -5 -25 -6 -26 -13 -8
-6 14 -7 6 -6 -25 1 -30 -2 -45 -10 -45 -7 0 -12 -4 -10 -10 1 -5 5 -9 8 -8 4
1 2 -13 -4 -32 -6 -19 -16 -35 -23 -35 -7 0 -14 -6 -17 -12 -2 -7 -3 -5 -2 5
2 9 -1 17 -6 17 -5 0 -13 10 -18 22 -6 18 -9 19 -14 5 -4 -10 -2 -17 5 -17 7
0 6 -5 -2 -15 -7 -9 -10 -19 -6 -22 4 -4 12 -1 17 7 9 12 10 12 5 -2 -4 -12 3
-22 22 -33 20 -11 22 -14 7 -12 -11 2 -30 8 -42 15 -18 10 -23 9 -32 -5 -5
-10 -12 -15 -16 -12 -3 4 0 13 8 20 13 14 30 49 23 49 -3 0 -11 3 -20 6 -9 3
-16 1 -16 -6 0 -6 5 -8 10 -5 6 3 10 1 10 -4 0 -6 -4 -11 -9 -11 -5 0 -11 -9
-14 -20 -4 -17 -9 -19 -31 -10 -19 7 -26 6 -27 -3 0 -9 -2 -9 -6 1 -7 17 -23
15 -23 -3 0 -8 -4 -15 -9 -15 -4 0 -6 11 -3 25 2 15 0 25 -7 25 -6 0 -10 -3
-10 -7 1 -5 0 -17 -1 -28 -2 -15 -4 -12 -10 10 -5 20 -8 24 -9 10 -1 -11 -6
-27 -11 -35 -7 -11 -9 -5 -5 20 l5 35 -12 -32 c-6 -18 -15 -33 -19 -33 -5 0
-6 6 -3 13 3 8 -2 14 -11 14 -9 0 -14 -6 -11 -14 3 -7 1 -13 -4 -13 -6 0 -10
6 -10 13 0 7 -3 8 -8 2 -10 -14 -52 -14 -53 -1 0 6 -4 2 -9 -9 -7 -17 -9 -17
-9 -2 -1 9 -5 17 -11 17 -5 0 -10 -8 -11 -17 0 -15 -2 -15 -9 2 -7 17 -9 17
-9 3 -1 -29 -21 -20 -22 10 l-1 27 -11 -30 -11 -30 -7 30 -7 30 -2 -35 -2 -35
-8 30 c-6 23 -8 25 -9 8 -1 -22 -18 -40 -28 -29 -3 3 0 13 8 22 12 15 12 17
-1 12 -8 -2 -17 -15 -21 -29 l-7 -24 -2 25 c-2 24 -3 23 -10 -5 -5 -22 -8 -24
-9 -9 -2 32 -14 37 -25 10 -10 -23 -12 -24 -36 -10 l-25 15 25 -5 c22 -5 21
-4 -5 9 -16 8 -23 14 -15 15 12 0 13 2 1 9 -11 7 -10 11 5 21 18 11 18 11 0 6
-13 -5 -17 -2 -13 8 3 8 1 17 -6 19 -7 2 4 11 23 20 l35 16 -35 -5 c-33 -5
-34 -5 -16 10 20 16 20 16 0 17 -15 0 -12 4 11 15 l30 15 -30 -6 c-23 -5 -27
-4 -18 6 6 6 9 17 7 24 -3 7 -1 16 5 19 6 4 8 13 5 20 -3 9 6 18 23 25 l28 11
-27 -5 c-34 -6 -37 2 -5 15 20 8 21 9 2 10 -17 2 -16 3 5 10 l25 8 -25 2 c-19
1 -11 7 30 20 l55 19 -45 -5 -45 -4 35 11 c19 7 29 14 23 16 -23 8 -14 23 15
24 15 1 38 5 52 9 17 6 8 8 -30 5 l-55 -4 60 13 c33 8 51 15 40 16 -13 1 -6 6
20 15 l40 14 -40 -5 -40 -4 40 20 40 20 -35 -5 c-35 -5 -35 -5 -8 8 34 16 79
57 73 67 -3 4 4 15 15 25 24 21 27 13 4 -9 -8 -9 -11 -16 -5 -16 6 0 20 18 31
40 21 42 33 52 25 23 -3 -10 3 0 14 21 15 31 20 35 23 20 4 -15 9 -11 22 19
15 35 29 50 24 26 -2 -6 3 -14 10 -16 7 -3 11 -1 10 4 -2 4 3 22 10 39 15 35
72 69 84 50 6 -8 8 -8 8 1z m403 6 c-7 -2 -21 -2 -30 0 -10 3 -4 5 12 5 17 0
24 -2 18 -5z m572 -73 c-19 -42 -41 -56 -29 -17 8 26 37 67 43 61 2 -2 -4 -22
-14 -44z m101 11 c-9 -16 -16 -37 -16 -46 0 -8 -4 -15 -10 -15 -5 0 -10 2 -10
5 0 12 43 95 47 91 2 -2 -3 -18 -11 -35z m63 -10 c-28 -54 -18 -65 12 -12 29
52 37 46 9 -8 -28 -56 -18 -51 25 11 42 63 46 55 8 -14 l-27 -50 -46 7 c-25 4
-46 8 -48 9 -5 5 28 75 39 81 6 4 3 -7 -6 -25 -27 -53 -12 -54 20 -1 36 59 45
60 14 2z m-2658 2 c1 -32 2 -34 8 -13 8 28 15 20 26 -27 8 -40 24 -53 17 -15
-7 40 6 22 28 -39 11 -30 19 -47 20 -39 0 8 20 -21 45 -65 25 -43 54 -88 64
-100 10 -11 17 -28 16 -38 -2 -11 6 -22 22 -30 22 -10 23 -12 6 -18 -16 -6
-15 -8 10 -18 24 -9 32 -21 28 -43 0 -5 5 -8 11 -8 9 0 8 -4 -2 -10 -13 -9
-13 -10 0 -10 8 0 21 -9 28 -20 10 -17 10 -20 -4 -20 -8 0 -12 -4 -9 -10 3 -5
15 -10 26 -10 10 0 19 -5 19 -11 0 -5 -4 -7 -10 -4 -5 3 -10 1 -10 -4 0 -6 8
-11 18 -11 9 0 23 -9 30 -20 7 -11 8 -20 3 -20 -6 0 -13 5 -16 10 -3 6 -12 10
-18 10 -7 -1 -6 -6 4 -13 9 -7 19 -22 23 -34 4 -11 13 -24 21 -27 13 -4 12 -1
-1 19 -9 14 -12 25 -6 25 9 0 25 -31 27 -52 0 -3 3 -9 7 -13 10 -11 -3 -36
-15 -28 -6 4 -8 0 -4 -11 4 -10 3 -15 -3 -11 -6 3 -10 1 -10 -5 0 -6 -7 -4
-16 5 -14 13 -19 14 -25 3 -7 -10 -9 -8 -10 7 -1 17 -2 17 -6 3 -4 -17 -6 -17
-21 -2 -12 12 -17 13 -20 4 -3 -9 -6 -9 -13 1 -7 12 -9 12 -9 0 0 -11 -3 -11
-15 -1 -12 10 -15 10 -16 -1 -1 -8 -5 -3 -9 11 -5 17 -8 19 -9 8 -1 -26 -21
-22 -22 5 -1 21 -1 21 -9 -3 -8 -25 -8 -25 -10 5 l-2 30 -8 -30 -8 -30 -8 25
-8 25 -7 -25 -7 -25 -2 25 -2 25 -8 -25 -7 -25 -11 25 -11 25 0 -24 c-1 -33
-18 -15 -24 24 -4 29 -4 29 -6 -5 -2 -29 -4 -32 -11 -15 -8 19 -9 19 -9 1 -1
-20 -1 -20 -16 0 -14 19 -14 19 -15 -1 0 -16 -2 -17 -9 -6 -7 11 -25 13 -81 7
-47 -4 -69 -3 -65 4 3 5 24 10 46 10 21 0 39 4 39 9 0 4 -24 7 -52 5 l-53 -3
60 14 60 15 -62 -5 c-57 -4 -83 5 -50 18 7 3 4 6 -6 6 -10 1 -15 6 -12 11 3 6
2 10 -3 10 -6 0 -13 16 -16 35 -4 19 -12 35 -19 35 -8 0 -8 3 2 9 11 7 10 11
-5 20 -14 8 -15 11 -4 11 12 1 11 3 -3 14 -10 8 -14 16 -9 17 6 2 3 10 -5 18
-14 13 -15 10 -11 -22 4 -37 -7 -47 -56 -47 -20 0 -20 0 0 15 18 15 18 15 0 8
-15 -5 -17 -3 -10 8 17 27 13 40 -9 33 l-22 -7 20 23 c19 22 19 23 1 16 -16
-5 -17 -4 -6 9 11 13 10 15 -6 9 -18 -5 -18 -5 -1 9 9 8 17 17 17 20 0 4 -8 3
-17 0 -16 -6 -16 -5 -4 10 9 12 10 17 2 17 -9 0 -9 6 0 23 l12 22 -22 -20
c-13 -11 -18 -21 -12 -23 5 -2 7 -10 5 -17 -3 -8 8 -86 26 -175 17 -88 28
-165 25 -170 -3 -6 -2 -10 3 -10 5 0 9 -7 9 -15 0 -24 -16 -17 -23 9 -3 14
-12 27 -20 30 -8 3 -14 13 -14 23 0 10 -11 54 -25 97 -14 43 -22 83 -19 88 8
12 -16 59 -26 53 -13 -8 -80 149 -86 200 -4 39 -3 47 6 35 10 -13 11 -13 6 2
-8 25 53 74 87 69 4 0 7 3 7 8 0 29 159 90 240 92 25 1 59 5 75 10 19 5 -2 6
-58 3 -111 -6 -196 -32 -273 -83 -94 -61 -196 -188 -234 -289 -25 -65 -59
-214 -60 -255 0 -41 85 -252 127 -314 21 -31 20 -43 -3 -25 -5 4 4 -6 21 -21
22 -21 25 -27 11 -22 -20 6 -20 6 0 -16 l19 -22 -22 12 c-34 17 -28 6 10 -19
28 -18 29 -20 7 -14 l-25 7 20 -23 20 -23 -25 13 c-14 7 4 -15 40 -50 36 -34
58 -58 50 -52 -8 6 -18 11 -23 11 -4 0 -22 8 -40 17 -30 16 -31 16 -18 0 12
-14 12 -16 -4 -10 -13 5 -16 4 -11 -4 9 -14 5 -15 -27 -3 -41 16 -122 22 -147
12 -24 -9 -24 -10 8 -10 42 -1 121 -21 128 -32 2 -5 -20 -7 -51 -6 -30 2 -55
-2 -55 -7 0 -5 -3 -6 -6 -3 -4 3 -15 2 -25 -4 -13 -7 -19 -6 -19 1 0 6 -7 4
-16 -5 -14 -13 -19 -14 -25 -3 -6 9 -9 10 -9 1 0 -7 -6 -10 -13 -7 -7 2 -31
-9 -52 -26 -49 -39 -56 -38 -19 2 l29 32 -35 -26 c-19 -14 -41 -36 -47 -49
-11 -20 -13 -21 -13 -5 0 21 37 86 50 86 10 0 27 48 28 78 1 13 24 72 51 132
28 60 51 122 51 139 0 16 5 33 10 36 6 4 10 -8 10 -28 0 -48 11 -97 21 -97 5
0 6 36 2 83 -5 45 -8 112 -8 149 0 56 -2 63 -11 45 -6 -12 -17 -53 -24 -92
-13 -76 -74 -238 -151 -407 -30 -63 -52 -128 -56 -160 -6 -50 -7 -51 -15 -23
-12 43 -2 87 47 200 87 200 117 282 141 383 13 57 31 117 39 133 9 16 22 64
30 107 26 135 68 242 130 331 68 97 126 148 223 198 85 43 165 61 285 62 l87
1 1 -37z m413 21 c3 -8 2 -12 -4 -9 -6 3 -10 10 -10 16 0 14 7 11 14 -7z
m1835 -28 c-9 -8 -10 -7 -5 7 3 10 7 24 7 30 1 7 3 4 6 -7 3 -10 -1 -23 -8
-30z m38 14 c-7 -17 -13 -26 -15 -21 -3 10 15 51 22 51 3 0 -1 -14 -7 -30z
m62 -4 c-7 -14 -16 -26 -20 -26 -5 0 0 13 9 29 20 36 27 34 11 -3z m210 -18
c-12 -23 -24 -38 -26 -32 -4 13 37 88 44 80 2 -2 -6 -24 -18 -48z m197 -7
c-31 -61 -21 -69 12 -10 26 46 41 48 17 3 -36 -70 -8 -52 36 23 16 26 29 41
29 33 0 -8 -11 -35 -25 -59 -30 -51 -30 -55 -7 -42 10 5 29 32 42 60 31 67 36
59 9 -13 -21 -59 -21 -86 2 -44 7 12 18 41 25 63 11 35 13 36 13 13 1 -15 -6
-46 -16 -69 -18 -46 -16 -45 -143 -18 -49 10 -49 11 -31 30 10 11 27 35 37 54
29 54 28 33 0 -24z m-629 27 c-3 -8 -6 -5 -6 6 -1 11 2 17 5 13 3 -3 4 -12 1
-19z m260 -9 c0 -21 -3 -26 -9 -16 -4 9 -5 22 -2 31 9 23 11 20 11 -15z m35 4
c-3 -16 -7 -22 -10 -15 -4 13 4 42 11 42 2 0 2 -12 -1 -27z m32 0 c-6 -25 -24
-56 -24 -41 0 10 22 68 26 68 2 0 1 -12 -2 -27z m480 -36 c-20 -58 -12 -85 10
-34 18 40 32 51 20 15 -15 -50 -13 -51 11 -3 25 48 26 42 9 -30 -12 -49 13
-24 30 31 10 31 19 54 21 52 1 -1 -2 -31 -8 -65 -9 -58 -22 -75 -40 -56 -4 4
-26 8 -50 11 -23 2 -43 5 -44 6 -2 1 9 30 24 64 31 72 40 77 17 9z m-3507 27
c-3 -3 -12 -4 -19 -1 -8 3 -5 6 6 6 11 1 17 -2 13 -5z m-317 -25 c-11 -8 -8
-9 14 -4 81 18 83 13 8 -18 -46 -19 -86 -38 -90 -42 -9 -9 44 5 87 22 18 8 35
12 37 10 3 -2 -34 -19 -81 -37 -48 -17 -85 -34 -83 -36 2 -1 72 19 156 46 182
59 235 67 75 11 -101 -35 -158 -60 -142 -61 4 0 26 7 49 15 24 8 45 14 47 12
2 -2 -25 -14 -59 -27 -112 -40 -222 -97 -273 -142 -27 -23 -46 -36 -41 -28 25
49 -99 -102 -138 -166 -25 -43 -46 -74 -47 -69 0 6 -4 1 -9 -10 -7 -16 -9 -10
-11 25 l-2 45 -7 -55 -7 -55 -1 66 c-5 185 100 317 345 434 77 37 122 54 137
50 15 -5 17 -4 7 3 -11 8 -10 11 5 15 33 8 40 7 24 -4z m2120 -19 c-9 -18 -9
-24 0 -30 8 -5 8 -10 2 -14 -16 -10 -23 22 -10 49 6 14 13 23 15 21 3 -2 -1
-14 -7 -26z m1280 20 c0 -5 -5 -10 -11 -10 -5 0 -7 5 -4 10 3 6 8 10 11 10 2
0 4 -4 4 -10z m-3102 -7 c-10 -2 -26 -2 -35 0 -10 3 -2 5 17 5 19 0 27 -2 18
-5z m1379 -25 c-3 -7 -5 -2 -5 12 0 14 2 19 5 13 2 -7 2 -19 0 -25z m20 -10
c-3 -7 -5 -2 -5 12 0 14 2 19 5 13 2 -7 2 -19 0 -25z m178 4 c-2 -9 -4 -17 -5
-17 -1 0 -3 -8 -5 -19 -2 -10 -9 -24 -15 -30 -8 -8 -9 -6 -4 8 5 14 4 17 -4
12 -9 -5 -10 -1 -3 16 5 13 12 31 15 41 7 23 25 13 21 -11z m-1572 11 c-7 -2
-19 -2 -25 0 -7 3 -2 5 12 5 14 0 19 -2 13 -5z m-56 -9 c-3 -3 -12 -4 -19 -1
-8 3 -5 6 6 6 11 1 17 -2 13 -5z m2928 -15 c161 -19 283 -42 440 -81 170 -43
321 -93 331 -110 9 -14 -11 -9 -176 42 -74 23 -191 54 -260 70 -127 29 -450
80 -508 80 -18 0 -32 5 -32 10 0 11 35 9 205 -11z m-2968 5 c-3 -3 -12 -4 -19
-1 -8 3 -5 6 6 6 11 1 17 -2 13 -5z m-57 -13 c-8 -5 -26 -11 -40 -15 -21 -5
-20 -3 5 9 32 15 60 20 35 6z m-710 -5 c0 -2 -8 -10 -17 -17 -16 -13 -17 -12
-4 4 13 16 21 21 21 13z m2227 -28 c-3 -7 -5 -2 -5 12 0 14 2 19 5 13 2 -7 2
-19 0 -25z m18 -18 c-9 -41 -17 -33 -9 9 4 17 9 30 11 27 3 -2 2 -19 -2 -36z
m-42 15 c-3 -9 -8 -14 -10 -11 -3 3 -2 9 2 15 9 16 15 13 8 -4z m-1440 -12
c-7 -2 -19 -2 -25 0 -7 3 -2 5 12 5 14 0 19 -2 13 -5z m1677 3 c0 -2 -8 -10
-17 -17 -16 -13 -17 -12 -4 4 13 16 21 21 21 13z m-2544 -33 c-10 -10 -19 5
-10 18 6 11 8 11 12 0 2 -7 1 -15 -2 -18z m821 21 c-3 -3 -12 -4 -19 -1 -8 3
-5 6 6 6 11 1 17 -2 13 -5z m-527 -28 c0 -2 -8 -10 -17 -17 -16 -13 -17 -12
-4 4 13 16 21 21 21 13z m507 -2 c-3 -3 -12 -4 -19 -1 -8 3 -5 6 6 6 11 1 17
-2 13 -5z m3333 -34 c0 -5 -4 -10 -10 -10 -5 0 -10 5 -10 10 0 6 5 10 10 10 6
0 10 -4 10 -10z m-3969 -36 c-33 -41 -25 -52 9 -14 l31 35 -28 -41 c-15 -23
-31 -37 -34 -32 -4 6 -12 -6 -19 -26 -7 -21 -14 -35 -17 -33 -7 7 34 97 54
119 25 27 27 21 4 -8z m3389 5 c0 -5 4 -8 9 -5 11 7 51 -54 51 -78 0 -9 5 -16
11 -16 5 0 7 -4 4 -10 -3 -5 -2 -10 3 -10 12 0 44 -69 37 -81 -4 -5 -2 -9 3
-9 6 0 13 -7 16 -16 4 -10 2 -13 -7 -8 -9 6 -9 4 1 -8 10 -13 10 -17 0 -21 -8
-3 -6 -6 5 -6 15 -1 16 -4 6 -22 -8 -15 -8 -19 0 -15 6 4 11 3 11 -3 0 -5 -6
-12 -12 -14 -9 -4 -7 -6 3 -6 18 -1 18 -35 0 -69 -6 -11 -11 -35 -13 -53 -1
-19 -6 -40 -11 -46 -6 -9 -6 -13 1 -13 15 0 35 38 27 50 -3 6 -2 10 3 10 6 0
16 30 23 66 l13 66 12 -35 c7 -20 14 -59 15 -89 1 -29 7 -59 12 -65 6 -9 5
-13 -4 -13 -11 0 -11 -2 1 -10 8 -5 11 -10 5 -10 -7 0 -7 -3 0 -8 27 -19 80
-186 69 -215 -3 -8 2 -17 10 -20 16 -6 61 -86 53 -93 -2 -3 -12 7 -21 21 -9
14 -21 25 -27 25 -7 0 -4 -12 6 -27 l18 -28 -22 19 c-11 11 -23 17 -26 14 -10
-9 7 -38 22 -38 20 0 63 -46 63 -67 -1 -17 -1 -17 -14 0 -8 10 -17 14 -20 9
-3 -6 7 -18 22 -27 46 -30 112 -118 98 -132 -3 -3 -8 2 -12 11 -3 9 -10 14
-14 11 -5 -3 -12 0 -16 6 -5 8 -3 9 7 4 8 -5 11 -4 6 1 -5 5 -12 9 -15 9 -4 1
-23 11 -42 24 -19 13 -26 20 -15 17 19 -7 19 -6 3 10 -9 10 -25 18 -35 19 -18
2 -37 8 -81 26 -17 6 -21 6 -16 -2 4 -7 -1 -7 -16 1 -16 9 -25 9 -33 1 -14
-14 -30 -14 -21 0 3 6 -5 3 -20 -6 -15 -10 -26 -13 -26 -6 0 6 -7 8 -17 4 -12
-5 -14 -3 -8 7 6 10 2 12 -16 7 -22 -6 -21 -5 6 19 l30 25 -45 -22 c-25 -12
-61 -33 -80 -47 -19 -14 -29 -18 -21 -9 16 20 2 23 -19 5 -9 -8 -8 -5 1 7 9
11 14 26 12 33 -3 6 0 12 7 12 6 0 8 -5 5 -10 -4 -6 19 8 49 31 31 23 56 44
56 46 0 6 -20 -7 -62 -40 -21 -16 -38 -24 -38 -18 0 5 20 24 45 42 49 35 54
41 28 33 -12 -4 -10 1 7 16 l25 22 -32 -18 c-18 -10 -28 -21 -23 -24 5 -3 -1
-12 -13 -19 -20 -13 -21 -13 -8 2 16 20 2 23 -19 5 -8 -7 -6 -3 4 10 20 23 9
31 -12 10 -8 -8 -12 -8 -12 -1 0 13 25 24 43 18 6 -3 23 5 37 16 l25 21 -27
-16 c-40 -24 -47 -19 -13 9 17 14 25 25 19 25 -6 0 -19 -9 -29 -20 -22 -25
-44 -27 -23 -2 28 32 32 48 8 27 -26 -22 -22 -14 20 50 36 54 42 65 37 65 -8
0 -103 -123 -136 -176 -37 -60 -40 -51 -6 19 l26 52 -26 -30 c-32 -39 -32 -30
3 33 16 29 32 49 37 45 4 -5 5 -2 1 5 -4 7 6 37 23 69 17 31 29 58 27 61 -3 2
-10 -7 -17 -20 -6 -12 -15 -25 -19 -28 -4 -3 -15 -20 -24 -37 -9 -18 -19 -33
-22 -33 -2 0 3 14 12 31 8 17 14 40 11 50 -3 10 -1 19 4 21 12 4 19 97 23 293
1 88 6 180 9 205 5 30 4 38 -2 24 -14 -31 -39 -197 -46 -307 -4 -54 -15 -130
-26 -170 -10 -39 -16 -56 -14 -37 3 19 -2 59 -10 89 -15 59 -15 72 0 83 6 5 5
8 -3 8 -8 0 -10 5 -6 12 4 6 7 32 5 56 -4 77 45 274 81 325 20 27 38 36 38 16z
m-2474 -92 c29 -68 54 -138 79 -226 5 -17 4 -21 -5 -16 -7 4 -4 -5 6 -21 11
-15 14 -25 7 -21 -14 9 -10 -111 6 -163 13 -43 14 -49 1 -30 -9 13 -10 13 -10
0 0 -8 -11 3 -24 25 -15 24 -30 76 -40 132 -20 119 -67 316 -73 310 -2 -3 1
-33 8 -68 10 -51 10 -64 0 -67 -8 -3 -9 -7 -4 -11 6 -3 13 -22 16 -41 5 -25 4
-31 -3 -20 -9 13 -10 13 -10 0 1 -8 7 -24 15 -34 8 -11 15 -24 15 -30 0 -5 -7
-1 -15 10 -10 14 -9 2 5 -44 11 -35 20 -71 20 -81 0 -9 14 -52 30 -95 17 -44
32 -91 34 -105 1 -15 8 -37 15 -50 7 -12 11 -24 9 -26 -2 -2 -28 38 -57 90
-30 52 -55 95 -57 95 -2 0 3 -19 11 -41 19 -52 19 -54 0 -39 -16 14 -9 -7 49
-132 32 -69 32 -77 5 -52 -18 16 -17 11 6 -26 17 -27 21 -39 11 -31 -9 8 -29
34 -43 58 -13 24 -27 43 -30 43 -2 0 -1 -5 3 -12 4 -7 3 -8 -4 -4 -6 4 -9 13
-5 21 3 10 -1 15 -12 15 -9 0 -13 5 -10 10 4 6 11 7 17 4 13 -8 4 8 -28 51
-51 69 -112 213 -99 235 3 5 2 10 -4 10 -18 0 -33 80 -26 134 l7 50 22 -56
c22 -57 65 -128 79 -128 4 0 3 8 -2 19 -6 10 -7 21 -4 25 3 3 1 6 -5 6 -6 0
-11 8 -11 18 0 13 -4 40 -10 60 -1 1 -1 5 -2 10 -1 4 -5 15 -10 25 -11 19 -20
172 -12 193 3 8 9 11 15 8 5 -3 9 0 7 7 -1 8 -1 21 0 29 1 13 2 13 11 0 8 -12
10 -12 16 3 3 9 10 14 15 11 5 -3 9 3 9 14 0 21 10 34 23 29 5 -1 24 -37 43
-80z m1210 -8 c11 -22 14 -54 11 -124 -1 -52 -7 -98 -12 -102 -4 -4 -5 0 -2
10 5 12 -4 31 -25 58 -25 30 -29 42 -19 48 9 6 6 10 -11 16 -18 6 -19 8 -6 12
14 3 12 8 -9 29 -13 13 -22 28 -18 33 3 5 1 12 -5 16 -7 4 -7 12 0 26 6 10 8
19 4 19 -4 0 -4 3 -1 7 4 3 19 -4 34 -18 19 -17 23 -18 12 -4 -32 40 -32 49
-1 26 18 -12 39 -36 48 -52z m-2096 57 c0 -2 -8 -10 -17 -17 -16 -13 -17 -12
-4 4 13 16 21 21 21 13z m3620 -37 c12 -23 20 -43 18 -45 -3 -2 -14 17 -26 41
-27 56 -20 60 8 4z m-35 0 c9 -17 15 -34 13 -39 -2 -5 -11 9 -20 30 -20 47
-15 53 7 9z m-1474 4 c13 -16 12 -17 -3 -4 -10 7 -18 15 -18 17 0 8 8 3 21
-13z m1751 -41 c-8 -2 -12 -12 -9 -23 5 -17 3 -18 -10 -7 -13 10 -17 10 -20 1
-3 -7 -9 -13 -14 -13 -4 0 -6 7 -3 15 4 8 1 22 -6 30 -11 13 -10 14 5 8 15 -5
17 -3 12 11 -4 10 -3 15 3 11 6 -3 10 -1 10 6 0 7 10 1 23 -12 16 -17 18 -25
9 -27z m213 38 c3 -5 -1 -10 -9 -10 -9 0 -16 5 -16 10 0 6 4 10 9 10 6 0 13
-4 16 -10z m-4131 -47 c-13 -27 -24 -54 -24 -62 0 -8 -3 -12 -6 -8 -12 12 34
117 51 117 1 0 -8 -21 -21 -47z m594 4 c5 8 11 4 19 -13 9 -19 8 -24 -2 -24
-8 0 -16 -8 -18 -17 -4 -14 -5 -12 -6 5 0 12 -5 22 -11 22 -5 0 -10 10 -10 23
0 18 2 19 10 7 7 -11 12 -12 18 -3z m-731 -49 c-2 -13 -4 -5 -4 17 -1 22 1 32
4 23 2 -10 2 -28 0 -40z m4389 21 c10 -17 -13 -36 -27 -22 -12 12 -4 33 11 33
5 0 12 -5 16 -11z m-3856 -33 c0 -20 -19 -31 -32 -18 -6 6 -7 15 -4 21 10 16
36 13 36 -3z m1977 -8 c-3 -8 -6 -5 -6 6 -1 11 2 17 5 13 3 -3 4 -12 1 -19z
m1681 11 c-2 -6 -8 -10 -13 -10 -5 0 -11 4 -13 10 -2 6 4 11 13 11 9 0 15 -5
13 -11z m-1691 -66 c-3 -10 -5 -4 -5 12 0 17 2 24 5 18 2 -7 2 -21 0 -30z
m-437 12 c15 -9 12 -25 -5 -25 -8 0 -13 -6 -11 -12 1 -7 1 -10 -1 -5 -3 4 -12
7 -21 8 -10 0 -5 6 13 14 35 16 19 20 -22 5 -25 -9 -26 -9 -10 4 14 11 15 15
5 20 -7 3 -1 3 14 1 15 -2 32 -6 38 -10z m1887 -17 c-3 -8 -6 -5 -6 6 -1 11 2
17 5 13 3 -3 4 -12 1 -19z m-3015 -28 c3 -16 1 -30 -3 -30 -4 0 -9 14 -11 30
-3 17 -1 30 3 30 4 0 9 -13 11 -30z m3358 20 c0 -5 -4 -10 -10 -10 -5 0 -10 5
-10 10 0 6 5 10 10 10 6 0 10 -4 10 -10z m-2968 -40 c3 -37 2 -40 -22 -39 -17
1 -19 3 -7 6 9 2 17 9 17 14 0 5 -12 6 -26 3 -19 -5 -25 -4 -20 5 4 6 13 11
21 11 8 0 17 5 20 10 4 7 -3 9 -22 5 -27 -6 -27 -6 -9 9 31 25 44 19 48 -24z
m768 30 c-8 -5 -19 -10 -25 -10 -5 0 -3 5 5 10 8 5 20 10 25 10 6 0 3 -5 -5
-10z m418 -245 l0 -40 -8 40 c-5 22 -11 87 -14 145 l-5 105 14 -105 c7 -58 13
-123 13 -145z m1962 234 c0 -6 6 -9 14 -6 11 4 14 -2 14 -24 -1 -19 -4 -25 -9
-18 -5 9 -11 10 -21 2 -10 -9 -13 -4 -15 23 -1 19 3 34 8 34 5 0 9 -5 9 -11z
m-2360 -8 c0 -5 -9 -11 -20 -14 -11 -3 -20 -1 -20 3 0 5 8 11 18 13 9 3 18 5
20 6 1 0 2 -3 2 -8z m-1368 -22 c-24 -10 -92 -33 -150 -50 -59 -16 -115 -33
-125 -35 -10 -3 -17 -8 -14 -10 2 -3 71 14 152 36 81 22 150 39 152 37 4 -5
-146 -61 -193 -73 -15 -4 -21 -9 -15 -14 15 -8 -112 -42 -246 -66 -74 -12
-109 -15 -125 -7 -20 9 -18 11 27 17 61 9 207 47 202 53 -3 2 -36 -5 -75 -16
-146 -40 -205 -36 -240 17 -14 22 -14 22 14 7 47 -24 158 -19 260 11 49 15
154 46 234 70 154 46 215 56 142 23z m1408 17 c0 -3 -4 -8 -10 -11 -5 -3 -10
-1 -10 4 0 6 5 11 10 11 6 0 10 -2 10 -4z m2235 -36 c-5 -8 -11 -8 -17 -2 -6
6 -7 16 -3 22 5 8 11 8 17 2 6 -6 7 -16 3 -22z m-2285 10 c0 -5 -5 -10 -11
-10 -5 0 -7 5 -4 10 3 6 8 10 11 10 2 0 4 -4 4 -10z m1767 -32 c-3 -7 -5 -2
-5 12 0 14 2 19 5 13 2 -7 2 -19 0 -25z m731 15 c-4 -22 -22 -20 -26 1 -2 10
3 16 13 16 10 0 15 -7 13 -17z m-3268 -24 c0 -3 -13 -9 -30 -11 -32 -5 -43 8
-12 14 27 6 42 5 42 -3z m-20 -29 c0 -5 -10 -10 -22 -9 -22 0 -22 1 -3 9 11 5
21 9 23 9 1 1 2 -3 2 -9z m30 -26 c0 -16 -6 -24 -17 -24 -14 0 -15 2 -4 9 8 6
11 16 6 31 -5 15 -4 20 4 16 6 -4 11 -18 11 -32z m2680 11 c0 -9 -7 -18 -16
-22 -18 -7 -39 11 -30 26 11 17 46 13 46 -4z m-3373 -1 c-3 -3 -12 -4 -19 -1
-8 3 -5 6 6 6 11 1 17 -2 13 -5z m-44 -11 c-7 -2 -19 -2 -25 0 -7 3 -2 5 12 5
14 0 19 -2 13 -5z m2704 1 c-3 -3 -12 -4 -19 -1 -8 3 -5 6 6 6 11 1 17 -2 13
-5z m3 -26 c0 -6 -7 -7 -16 -4 -9 3 -20 6 -25 6 -5 0 -9 4 -9 9 0 4 11 6 25 3
14 -2 25 -9 25 -14z m20 -8 c0 -13 -7 -20 -20 -20 -19 0 -19 1 -2 19 22 25 22
25 22 1z m-1950 0 c0 -5 -2 -10 -4 -10 -3 0 -8 5 -11 10 -3 6 -1 10 4 10 6 0
11 -4 11 -10z m2865 0 c3 -5 1 -10 -4 -10 -6 0 -11 5 -11 10 0 6 2 10 4 10 3
0 8 -4 11 -10z m-1079 -18 c1 -7 0 -8 -3 -2 -2 5 -9 8 -14 4 -5 -3 -9 0 -9 6
0 15 23 7 26 -8z m1214 14 c0 -3 -4 -8 -10 -11 -5 -3 -10 -1 -10 4 0 6 5 11
10 11 6 0 10 -2 10 -4z m-2605 -51 c208 -17 284 -36 374 -96 60 -40 111 -91
111 -111 0 -6 -3 -9 -6 -5 -8 8 -64 -20 -64 -32 0 -17 69 -41 117 -41 46 0
113 28 113 48 0 5 -18 15 -40 22 -22 7 -40 16 -40 19 0 9 75 71 125 104 56 37
140 64 237 77 46 6 116 15 157 20 167 23 45 -17 -154 -50 -140 -24 -242 -63
-301 -117 -16 -15 -23 -23 -15 -17 34 24 128 74 168 88 23 8 95 24 160 36 65
11 161 30 215 42 54 12 104 18 115 13 17 -7 17 -8 -2 -16 -17 -7 -15 -8 10 -7
128 5 89 -12 -130 -57 -210 -44 -246 -53 -223 -54 9 -1 110 19 226 43 279 59
360 72 373 59 7 -7 -16 -14 -73 -23 -89 -13 -553 -105 -705 -140 -51 -12 -93
-26 -93 -31 0 -12 9 -11 61 6 41 14 494 106 767 155 67 13 126 20 129 16 4 -4
-15 -118 -42 -254 -27 -136 -51 -239 -53 -230 -4 19 26 189 61 354 l24 111
-21 -4 c-72 -12 -525 -93 -546 -98 -14 -3 -68 -12 -120 -21 -109 -19 -239 -50
-248 -59 -4 -4 -10 -34 -13 -68 l-6 -62 -1 58 -2 58 -29 -22 c-40 -29 -131
-30 -171 0 l-29 21 -4 -78 c-3 -75 -3 -75 -5 21 -1 59 -6 96 -11 92 -6 -3 -8
4 -6 15 3 17 -6 26 -48 46 -29 13 -61 24 -72 23 -11 0 8 -11 43 -23 35 -13 66
-27 70 -32 4 -4 -2 -4 -13 0 -70 26 -301 71 -595 116 -233 36 -246 39 -234 50
5 4 50 2 99 -6 148 -23 191 -27 116 -9 -35 8 -66 16 -68 19 -11 11 97 18 191
13 l101 -5 -79 13 c-43 8 -81 16 -84 19 -7 7 -26 8 183 -9z m2166 -27 c-14
-16 -16 -17 -19 -3 -2 8 -8 15 -13 15 -16 0 -9 18 9 22 28 6 41 -13 23 -34z
m209 28 c0 -15 -24 -28 -34 -19 -13 14 -5 33 14 33 11 0 20 -6 20 -14z m-1603
-18 c-3 -8 -6 -5 -6 6 -1 11 2 17 5 13 3 -3 4 -12 1 -19z m1766 -125 c4 -6 30
-14 57 -18 65 -9 75 -25 16 -25 -63 0 -83 -22 -92 -100 -4 -33 -8 -59 -11 -57
-2 2 -8 31 -13 63 -11 66 -35 94 -81 94 -15 0 -31 5 -34 10 -4 6 8 10 28 10
53 0 76 25 89 100 l13 65 10 -65 c6 -36 14 -70 18 -77z m27 117 c0 -5 -5 -10
-11 -10 -5 0 -7 5 -4 10 3 6 8 10 11 10 2 0 4 -4 4 -10z m-3049 -30 c30 -6
160 -29 289 -51 281 -48 516 -94 550 -108 40 -16 3 -12 -105 9 -84 18 -215 40
-375 64 -19 3 -46 8 -60 11 -13 2 -40 7 -60 9 -101 14 -118 17 -140 23 -14 3
-44 7 -67 7 -24 1 -43 4 -43 7 0 4 -9 9 -20 12 -11 3 -20 3 -20 1 0 -2 9 -44
19 -92 28 -126 73 -383 68 -388 -3 -3 -7 5 -10 18 -10 40 -97 470 -97 479 0
11 5 11 71 -1z m2929 -10 c0 -5 -5 -10 -11 -10 -5 0 -7 5 -4 10 3 6 8 10 11
10 2 0 4 -4 4 -10z m-4062 -40 c17 -27 10 -25 -19 6 -13 14 -17 23 -9 19 9 -3
21 -14 28 -25z m4194 -12 c-7 -7 -12 -8 -12 -2 0 14 12 26 19 19 2 -3 -1 -11
-7 -17z m68 2 c0 -5 -4 -10 -10 -10 -5 0 -10 5 -10 10 0 6 5 10 10 10 6 0 10
-4 10 -10z m-3940 -50 l25 -6 -22 -8 c-14 -4 -26 -20 -31 -39 l-9 -32 -7 31
c-5 21 -15 34 -29 38 l-22 7 22 9 c12 5 25 19 29 32 l8 23 6 -25 c3 -15 15
-27 30 -30z m903 23 c-7 -2 -19 -2 -25 0 -7 3 -2 5 12 5 14 0 19 -2 13 -5z
m144 -25 c-3 -8 -6 -5 -6 6 -1 11 2 17 5 13 3 -3 4 -12 1 -19z m1510 -25 c-3
-10 -5 -4 -5 12 0 17 2 24 5 18 2 -7 2 -21 0 -30z m-717 -13 c12 -8 9 -10 -12
-10 -16 0 -28 5 -28 10 0 13 20 13 40 0z m2040 -4 c0 -2 -7 -7 -16 -10 -8 -3
-12 -2 -9 4 6 10 25 14 25 6z m-3335 -27 c11 -17 -1 -21 -15 -4 -8 9 -8 15 -2
15 6 0 14 -5 17 -11z m3202 -51 c-3 -8 -6 -5 -6 6 -1 11 2 17 5 13 3 -3 4 -12
1 -19z m-4091 -29 c3 -5 -7 -4 -23 3 -41 17 -53 30 -15 17 18 -6 35 -15 38
-20z m105 14 c13 -16 12 -17 -3 -4 -10 7 -18 15 -18 17 0 8 8 3 21 -13z m4231
-10 c-6 -2 -9 -10 -6 -15 4 -6 2 -8 -3 -5 -14 9 -105 -89 -131 -139 -11 -21
-23 -54 -27 -73 -5 -25 -10 -30 -17 -20 -6 10 -7 3 -4 -21 5 -33 5 -33 -5 -8
-14 37 3 93 51 166 37 54 118 123 145 121 6 0 4 -3 -3 -6z m-4124 -246 c18
-34 33 -75 36 -92 2 -16 1 -23 -1 -15 -16 49 -47 109 -54 104 -5 -3 -7 1 -6 8
2 7 2 9 -1 4 -2 -4 -8 -2 -13 5 -6 9 -9 10 -9 2 0 -6 8 -18 18 -25 16 -11 58
-128 46 -128 -2 0 -20 33 -40 73 -20 39 -45 84 -55 99 -11 15 -16 33 -12 44 5
14 2 16 -15 12 -15 -4 -32 4 -59 29 l-38 35 43 -32 c54 -41 55 -23 0 24 -23
20 -38 36 -35 36 4 0 28 -19 52 -41 58 -53 69 -44 18 14 -21 24 -8 13 28 -25
36 -38 80 -97 97 -131z m1891 -69 c0 -73 -3 -118 -9 -118 -6 0 -9 70 -8 193 1
147 3 174 8 117 4 -41 8 -128 9 -192z m1916 242 c0 -8 -8 -16 -17 -18 -13 -2
-18 3 -18 18 0 15 5 20 18 18 9 -2 17 -10 17 -18z m-1773 -325 l-9 -120 -2
100 c0 55 2 159 7 230 l7 130 3 -110 c1 -60 -2 -164 -6 -230z m1658 320 c0 -8
-4 -15 -10 -15 -5 0 -10 7 -10 15 0 8 5 15 10 15 6 0 10 -7 10 -15z m393 -17
c-34 -37 -83 -108 -83 -122 0 -5 10 6 23 24 12 18 38 45 57 59 l35 26 -42 -50
c-23 -27 -51 -70 -63 -95 -16 -34 -20 -38 -17 -17 6 36 -1 34 -15 -4 -6 -16
-12 -28 -14 -27 -4 5 22 91 37 120 11 23 99 118 108 118 3 0 -9 -15 -26 -32z
m-1385 -25 c62 -34 123 -81 207 -159 63 -58 94 -247 54 -326 -20 -39 -37 -53
-24 -20 5 13 4 14 -6 5 -10 -10 -10 -15 0 -27 10 -11 9 -14 -1 -12 -7 1 -19 5
-25 9 -8 5 -13 3 -13 -4 0 -7 -3 -9 -6 -6 -4 4 -1 14 6 22 7 9 9 15 4 14 -5
-1 -15 -1 -23 0 -24 2 -1 16 27 16 14 1 27 7 30 15 3 13 2 13 -7 0 -6 -9 -11
-10 -11 -3 0 8 -9 9 -29 3 -15 -4 -35 -4 -42 1 -10 6 -11 9 -1 10 27 3 31 4
39 13 5 5 3 6 -4 2 -8 -4 -13 -2 -13 6 0 11 -2 10 -9 0 -7 -11 -10 -10 -15 3
-3 9 -6 25 -6 36 0 11 -7 19 -16 19 -10 0 -14 5 -10 16 3 8 2 13 -3 10 -5 -3
-12 1 -15 10 -5 12 -10 13 -19 6 -8 -7 -26 -8 -49 -3 -21 5 -40 6 -44 2 -4 -3
-5 1 -2 10 5 12 0 14 -23 11 -17 -3 -29 0 -29 7 0 6 -8 11 -18 11 -9 0 -44 13
-77 29 -109 53 -170 78 -182 74 -6 -2 -14 0 -17 6 -4 6 -13 8 -20 5 -8 -3 -30
2 -50 10 -28 12 -36 21 -36 41 0 40 35 51 112 32 175 -42 258 -67 306 -91 30
-15 59 -25 65 -23 7 2 31 -4 54 -14 38 -16 43 -16 55 -1 9 11 10 14 1 8 -15
-9 -17 5 -3 22 5 7 3 6 -5 -1 -14 -12 -21 -9 -51 20 -22 20 -32 38 -28 45 4 7
4 10 0 6 -4 -4 -36 14 -69 39 -62 45 -83 63 -59 49 16 -10 15 2 -2 20 -11 11
-16 11 -19 1 -3 -6 -6 -1 -6 14 -2 59 36 63 127 12z m-2822 -65 c41 -38 85
-112 99 -168 3 -14 -12 8 -34 49 -46 85 -88 132 -148 168 -24 14 -43 27 -43
29 0 12 87 -42 126 -78z m1497 57 c25 -25 8 -55 -42 -76 -71 -30 -111 -53
-111 -63 0 -5 -3 -7 -6 -4 -3 3 -16 -5 -30 -19 -21 -21 -27 -23 -41 -11 -14
11 -16 11 -8 -1 6 -11 4 -13 -8 -8 -10 3 -17 2 -17 -4 0 -6 -4 -8 -8 -5 -4 2
-14 -4 -21 -15 -11 -18 -10 -20 5 -11 19 11 54 4 54 -10 0 -15 74 -2 121 23
60 30 306 119 343 123 41 5 66 -10 66 -38 0 -31 -6 -35 -38 -27 -16 4 -29 17
-34 32 l-7 24 2 -25 c1 -14 11 -29 24 -36 22 -10 21 -11 -20 -24 -23 -6 -71
-25 -106 -41 -53 -24 -67 -27 -80 -17 -14 11 -14 11 -3 -4 11 -14 10 -18 -9
-28 -18 -10 -21 -10 -16 2 3 8 1 21 -4 29 -8 12 -10 12 -8 -1 1 -8 1 -24 0
-34 -1 -20 -1 -20 -16 0 -14 18 -14 18 -8 -3 3 -14 1 -23 -6 -23 -7 0 -9 5 -5
12 4 6 3 8 -4 4 -5 -3 -13 0 -16 6 -3 7 -3 3 0 -9 4 -17 -2 -25 -25 -38 -17
-8 -42 -16 -56 -17 -14 -1 -25 -6 -25 -11 0 -4 -5 -5 -12 -1 -7 5 -8 3 -4 -5
6 -9 21 -10 50 -6 50 9 319 93 402 128 42 17 66 22 78 15 21 -12 20 -31 -1
-50 -31 -27 -233 -113 -278 -119 -5 0 -19 -6 -30 -12 -41 -22 -85 -26 -95 -8
-9 15 -9 15 -10 0 0 -22 -31 -34 -42 -17 -6 11 -8 10 -8 0 0 -7 -4 -10 -10 -7
-5 3 -10 1 -10 -6 0 -7 -3 -9 -7 -6 -3 4 -13 1 -21 -6 -9 -6 -13 -7 -9 -1 3 6
0 11 -8 11 -8 0 -13 -5 -12 -10 1 -5 -9 -11 -23 -13 -14 -1 -36 -4 -50 -6 -28
-3 -50 -19 -43 -30 2 -5 -1 -8 -8 -8 -8 0 -7 -5 2 -17 13 -17 13 -17 -5 -3
-18 14 -19 13 -13 -3 6 -16 2 -15 -22 5 -27 21 -44 47 -22 33 5 -3 12 -1 16 5
7 12 25 4 25 -11 0 -6 -5 -7 -12 -3 -7 5 -8 3 -3 -5 5 -9 10 -10 18 -2 13 13
-10 44 -27 34 -19 -12 -57 -11 -52 2 2 6 -2 12 -9 12 -10 0 -11 -6 -2 -24 8
-18 13 -20 20 -11 6 9 7 8 3 -5 -4 -12 -2 -16 6 -11 7 5 8 3 3 -6 -5 -9 -4
-11 4 -6 7 4 20 -2 31 -16 29 -34 24 -44 -6 -11 -17 19 -24 22 -20 10 9 -30
-12 -9 -39 37 -59 101 -27 301 56 350 17 10 57 39 88 65 38 31 81 55 136 73
92 32 118 34 138 13z m-1196 -67 c-3 -8 -6 -5 -6 6 -1 11 2 17 5 13 3 -3 4
-12 1 -19z m3554 9 c-1 -12 -15 -9 -19 4 -3 6 1 10 8 8 6 -3 11 -8 11 -12z
m359 -1 c0 -2 -8 -10 -17 -17 -16 -13 -17 -12 -4 4 13 16 21 21 21 13z m-4244
-22 c-6 16 -4 17 10 5 21 -17 74 -110 73 -129 0 -8 -11 7 -25 33 -32 61 -41
56 -15 -7 30 -69 16 -55 -26 27 -46 89 -50 97 -28 72 15 -19 16 -19 11 -1z
m831 0 c26 -9 53 -20 58 -26 6 -6 3 -7 -9 -2 -13 5 -17 4 -12 -4 4 -7 13 -12
19 -12 19 0 70 -37 60 -43 -5 -3 -22 1 -38 9 -15 8 -30 12 -33 9 -3 -3 -10 -1
-16 4 -14 11 -109 24 -156 22 -58 -4 -60 -4 -60 -10 0 -4 -20 -13 -45 -20 -25
-7 -61 -24 -80 -36 -18 -13 -37 -20 -41 -17 -4 4 -3 1 1 -7 6 -11 4 -13 -11
-7 -10 4 -15 4 -11 0 4 -4 -10 -26 -30 -47 -43 -45 -43 -45 52 18 39 25 93 52
120 60 50 14 165 16 165 3 0 -4 8 -5 18 -2 14 5 14 3 -3 -11 -11 -9 -28 -14
-38 -11 -9 2 -15 1 -13 -3 3 -4 -19 -22 -49 -39 -58 -35 -122 -103 -131 -139
-4 -13 -11 -20 -17 -16 -6 3 -7 1 -3 -5 4 -7 1 -26 -7 -44 -8 -18 -21 -62 -27
-98 -7 -36 -19 -78 -27 -93 -12 -23 -12 -35 -2 -65 7 -20 14 -42 15 -47 1 -6
16 -27 35 -48 24 -27 35 -34 42 -25 6 9 7 8 3 -4 -6 -21 29 -45 39 -28 4 6 23
-6 46 -30 21 -22 43 -40 48 -40 18 0 23 21 9 37 -9 12 -9 15 -1 9 7 -4 18 -16
24 -28 9 -16 8 -19 -3 -12 -11 6 -11 5 1 -9 15 -19 26 -23 15 -6 -4 8 1 9 17
3 13 -4 33 -7 44 -6 11 1 33 2 50 2 l30 1 -25 19 c-14 11 -30 18 -37 15 -13
-4 -26 10 -29 32 -2 15 31 0 55 -24 7 -8 20 -12 28 -9 8 3 11 1 8 -4 -3 -6 -3
-10 2 -11 4 0 28 -3 52 -5 26 -3 65 2 98 12 51 16 54 18 32 27 -13 4 -40 6
-59 3 -19 -2 -52 1 -74 9 -21 7 -43 12 -50 9 -6 -2 -24 5 -41 16 -16 11 -25
20 -20 20 6 0 21 -8 35 -17 16 -11 25 -13 28 -5 2 7 9 8 20 2 36 -19 86 -30
92 -20 3 5 19 7 34 4 16 -3 36 -2 45 2 23 10 41 14 89 21 24 3 39 9 32 13 -6
4 9 15 37 25 39 15 44 20 28 26 -14 5 -15 8 -5 8 11 1 12 4 3 9 -6 4 9 7 34 8
l46 0 -59 -55 c-86 -80 -195 -128 -357 -156 -128 -23 -129 -23 -192 -4 -78 24
-166 81 -244 161 -81 81 -101 124 -103 224 l-1 79 -6 -65 c-7 -81 -21 -49 -21
50 0 69 16 107 68 162 14 15 22 31 19 35 -11 10 -78 -58 -95 -97 -22 -51 -26
-20 -7 47 36 122 106 222 186 263 42 22 157 48 216 49 23 1 64 -6 90 -15z
m2803 -4 c62 -17 142 -73 175 -121 56 -81 90 -271 66 -366 -7 -26 -36 -88 -64
-138 l-52 -90 -6 80 c-4 60 -13 97 -37 148 -17 37 -33 67 -37 67 -3 0 4 -18
15 -41 43 -83 11 -47 -49 56 -34 58 -64 105 -66 105 -3 0 17 -44 45 -97 66
-129 82 -215 57 -310 -9 -35 -26 -78 -37 -93 -20 -28 -78 -70 -103 -74 -6 -1
-23 -8 -37 -16 -23 -12 -24 -12 -11 3 13 16 11 16 -25 1 -43 -18 -127 -20
-170 -4 -15 6 -61 17 -100 25 -92 18 -158 51 -225 115 -32 30 -44 46 -29 38
14 -7 29 -11 33 -10 5 1 6 -2 2 -8 -10 -17 76 -49 138 -51 38 -1 64 3 81 15
14 9 26 13 26 9 0 -4 22 16 49 45 67 73 85 128 78 241 -8 132 -50 223 -110
244 -10 4 -16 11 -13 16 4 5 -8 21 -26 35 l-33 26 50 -5 c28 -2 82 -6 120 -9
146 -9 239 -66 329 -200 32 -48 60 -85 62 -84 7 8 -9 47 -17 43 -4 -3 -17 12
-29 34 -23 47 -25 55 -7 46 6 -4 1 3 -12 14 -13 12 -20 21 -16 21 17 0 -62 59
-121 90 -34 19 -61 38 -58 42 3 5 2 8 -3 7 -4 -1 -12 0 -18 1 -13 4 -43 7 -75
9 -40 2 -8 23 42 27 92 7 238 -98 315 -227 22 -38 36 -77 44 -129 6 -41 13
-86 16 -100 6 -23 6 -23 14 10 18 79 -32 235 -102 315 -17 19 -36 32 -42 28
-5 -3 -7 -1 -4 4 7 11 -58 57 -129 93 -36 18 -37 19 -13 20 71 1 214 -64 282
-128 33 -32 37 -10 5 26 -13 14 -16 22 -8 17 8 -4 3 5 -11 21 -15 16 -24 35
-22 42 3 8 -1 10 -13 5 -13 -5 -15 -3 -9 7 6 10 4 12 -9 7 -11 -5 -15 -3 -10
5 5 7 2 9 -9 5 -11 -4 -14 -2 -11 7 3 7 -2 19 -11 26 -10 8 -15 9 -15 1 0 -6
5 -11 11 -11 5 0 7 -5 3 -11 -5 -8 -9 -8 -14 1 -4 6 -13 12 -21 14 -32 5 -59
18 -54 25 2 5 -9 7 -26 5 -20 -3 -28 0 -23 7 4 8 0 7 -15 0 -14 -8 -27 -9 -39
-2 -14 7 -25 6 -40 -5 -12 -8 -26 -13 -31 -9 -5 3 -13 0 -17 -6 -5 -8 -3 -9 7
-4 8 5 11 4 6 0 -4 -5 -16 -9 -27 -10 -18 -2 -18 0 -6 14 14 15 12 16 -21 16
-26 -1 -37 -6 -39 -18 -2 -15 0 -15 24 -1 l27 16 -24 -21 c-18 -16 -27 -19
-37 -10 -7 6 -19 7 -26 3 -7 -4 -2 5 12 20 13 14 30 24 37 22 7 -3 13 -1 13 4
0 24 210 40 280 20z m340 -5 c0 -8 -7 -15 -15 -15 -16 0 -20 12 -8 23 11 12
23 8 23 -8z m-3984 -47 c23 -45 12 -43 -15 4 -12 22 -18 37 -12 34 6 -4 18
-21 27 -38z m4209 12 c-9 -16 -18 -30 -21 -30 -2 0 2 14 11 30 9 17 18 30 21
30 2 0 -2 -13 -11 -30z m-3320 -80 c0 -1 11 -4 24 -6 41 -7 37 -14 -10 -15
-24 -1 -47 -1 -51 0 -5 0 -8 -3 -8 -9 0 -5 -14 -17 -31 -25 -54 -29 -152 -145
-136 -162 3 -2 8 5 12 16 11 36 112 118 171 141 54 20 138 25 128 8 -3 -5 -9
-6 -13 -3 -5 2 -17 -5 -27 -18 -19 -21 -19 -21 1 -7 11 8 -4 -8 -32 -36 -29
-27 -53 -57 -53 -65 1 -10 4 -8 11 5 9 15 13 16 21 5 8 -11 9 -10 5 3 -3 9 0
24 8 34 12 16 13 15 9 -12 -2 -17 -8 -44 -14 -60 -9 -25 -8 -27 3 -12 12 16
15 10 20 -50 6 -70 37 -156 79 -215 14 -20 16 -27 6 -19 -20 16 -62 86 -73
122 -4 13 -14 31 -22 38 -12 13 -14 10 -11 -24 2 -26 7 -38 16 -36 8 1 11 -2
7 -7 -3 -6 2 -23 11 -38 17 -28 16 -28 -9 2 -34 39 -34 26 -1 -31 32 -54 24
-58 -11 -7 -30 45 -33 33 -5 -22 l21 -40 -25 30 c-14 16 -28 43 -32 60 -4 16
-9 25 -11 19 -2 -7 5 -37 15 -68 10 -31 17 -54 14 -51 -3 3 -12 -1 -20 -8 -13
-9 -14 -9 -8 1 4 6 3 12 -3 12 -5 0 -17 19 -25 43 -13 33 -15 35 -12 12 3 -16
8 -39 12 -50 5 -14 4 -17 -4 -10 -6 6 -15 26 -21 45 l-11 35 6 -38 c8 -58 -13
-36 -25 26 -6 28 -12 70 -14 92 -3 32 -4 29 -5 -16 -1 -31 4 -77 12 -102 8
-26 12 -47 10 -47 -6 0 -27 44 -36 75 -6 24 -7 21 -3 -15 5 -65 -12 -28 -24
51 -6 35 -11 93 -12 129 0 46 -3 59 -9 45 -14 -33 -11 -178 5 -230 8 -27 13
-51 11 -53 -4 -4 -32 71 -39 103 -4 19 -5 19 -6 -1 0 -11 6 -42 13 -69 9 -27
10 -43 4 -37 -6 6 -19 39 -28 74 -22 74 -26 47 -6 -32 8 -30 13 -56 11 -58 -5
-6 -35 79 -35 101 0 12 -5 29 -10 37 -10 15 -10 13 4 -77 3 -16 8 -37 11 -48
6 -16 5 -17 -4 -5 -9 13 -11 13 -11 0 0 -9 -7 -5 -17 10 -15 20 -18 45 -17
135 l1 110 -18 -40 c-10 -22 -18 -46 -18 -54 -1 -8 -3 -12 -6 -9 -8 8 15 97
36 140 24 47 24 55 -1 33 -17 -15 -40 -72 -53 -130 -3 -13 -5 -8 -6 12 -2 70
58 211 112 261 38 36 198 111 227 107 14 -2 25 -4 25 -5z m164 -56 c-9 -11 -9
-18 -2 -22 7 -5 8 -32 3 -87 -4 -45 -4 -107 1 -140 13 -85 63 -182 105 -207
45 -26 43 -32 -3 -13 -47 19 -77 55 -103 120 -10 28 -19 42 -19 32 -1 -10 4
-27 10 -39 6 -11 8 -22 5 -25 -9 -9 -46 86 -39 102 3 10 0 15 -8 13 -9 -2 -13
5 -12 20 2 14 -1 21 -7 17 -6 -4 -10 5 -10 22 0 15 -3 55 -6 88 -5 52 -2 64
17 89 20 25 49 44 73 45 5 1 3 -6 -5 -15z m1538 -30 c98 -26 210 -53 248 -60
63 -11 72 -11 90 4 19 16 19 16 5 -2 -11 -14 -11 -17 -2 -12 25 15 71 -65 50
-87 -14 -16 -119 -5 -172 17 -20 8 -36 12 -36 8 0 -4 -5 1 -11 11 -6 10 -15
14 -22 10 -7 -4 -19 -8 -27 -10 -23 -3 -100 34 -100 49 0 10 -2 10 -8 1 -6
-10 -40 -3 -140 29 -118 38 -132 45 -132 65 0 20 5 23 40 23 21 0 119 -21 217
-46z m698 -95 c25 -31 36 -87 14 -73 -9 5 -10 -4 -5 -32 5 -29 4 -35 -4 -24
-8 11 -9 7 -5 -20 3 -19 1 -48 -5 -65 -9 -27 -9 -25 -5 15 5 50 1 46 -15 -18
-6 -23 -15 -40 -20 -37 -6 4 -10 -1 -10 -9 0 -9 -5 -15 -12 -13 -6 1 -17 -9
-25 -23 -7 -14 -13 -19 -13 -10 0 13 -1 13 -10 0 -5 -8 -10 -11 -10 -6 0 6
-13 -3 -30 -19 -16 -16 -30 -25 -30 -20 0 5 -5 4 -12 -3 -7 -7 -16 -12 -20
-12 -4 0 9 16 31 35 21 20 50 62 66 97 26 58 27 67 21 152 -10 128 -13 150
-21 177 -7 20 0 17 43 -20 28 -23 63 -56 77 -72z m662 49 c-3 -7 -5 -2 -5 12
0 14 2 19 5 13 2 -7 2 -19 0 -25z m-2073 14 c7 -11 -5 -27 -32 -41 -81 -43
-390 -156 -400 -147 -2 3 -14 -1 -25 -9 -13 -9 -27 -11 -43 -5 -23 9 -29 6
-24 -15 1 -5 -7 -1 -18 8 -13 12 -22 14 -25 7 -4 -7 -5 -7 -4 1 2 6 6 10 10
10 3 0 17 10 31 24 22 22 58 35 134 49 18 3 31 2 28 -3 -3 -5 13 -5 36 1 24 5
51 7 61 4 10 -2 21 2 24 10 3 8 12 13 19 10 8 -3 19 4 25 15 6 12 17 18 25 15
8 -3 14 -1 14 5 0 6 4 8 9 5 5 -4 11 -3 13 1 4 10 108 62 125 62 6 1 14 -3 17
-7z m529 -19 c9 -3 17 -10 17 -15 0 -5 5 -6 12 -2 8 5 9 0 5 -17 -5 -22 -5
-22 7 -7 12 17 16 17 62 1 27 -9 52 -20 55 -25 3 -6 9 -9 13 -9 22 3 27 -1 22
-15 -5 -13 -3 -14 7 -6 7 6 26 9 42 7 17 -3 67 -9 112 -14 94 -12 147 -31 162
-58 9 -18 6 -20 -38 -22 -30 -1 -73 7 -117 22 -38 14 -82 28 -99 32 -16 3 -33
12 -37 18 -6 9 -8 9 -8 0 0 -15 -123 19 -207 57 -49 23 -63 34 -63 51 0 16 4
19 18 14 9 -4 25 -10 35 -12z m1697 4 c0 -2 -17 -19 -37 -38 -20 -18 -31 -25
-23 -14 18 26 60 62 60 52z m-166 -51 c-3 -15 -8 -25 -11 -23 -2 3 -1 17 3 31
3 15 8 25 11 23 2 -3 1 -17 -3 -31z m96 30 c0 -2 -8 -10 -17 -17 -16 -13 -17
-12 -4 4 13 16 21 21 21 13z m-1575 -90 c6 -6 19 -13 30 -15 11 -1 31 -9 45
-17 25 -13 25 -13 3 -14 -13 0 -23 5 -23 11 0 5 -5 7 -10 4 -6 -4 -27 4 -48
17 -20 12 -40 22 -44 21 -3 -1 -9 4 -12 12 -4 12 0 12 22 3 15 -7 32 -17 37
-22z m-845 -66 c-14 -10 -26 -17 -29 -15 -2 2 -10 -3 -18 -11 -9 -8 -22 -13
-30 -10 -8 3 -12 2 -9 -3 3 -5 -5 -16 -18 -24 -18 -12 -26 -13 -36 -4 -10 9
-11 9 -6 0 8 -15 0 -15 -29 -3 -11 5 -14 9 -7 9 6 1 12 8 12 15 0 14 38 29
140 55 53 14 57 12 30 -9z m1160 -17 c39 -14 69 -37 70 -53 0 -12 -65 -8 -89
6 -14 8 -18 13 -8 10 9 -3 17 -3 17 0 0 8 -111 55 -119 50 -4 -3 -8 1 -8 8 0
16 67 6 137 -21z m194 -4 c9 13 26 5 26 -12 0 -8 -3 -7 -9 2 -7 11 -11 10 -20
-5 -6 -12 -11 -14 -11 -5 0 10 -6 9 -27 -4 l-28 -18 24 27 c16 17 27 22 32 15
5 -8 8 -8 13 0z m-1823 -26 c13 -16 12 -17 -3 -4 -17 13 -22 21 -14 21 2 0 10
-8 17 -17z m1909 -3 c-13 -24 -16 -25 -24 -4 -3 8 -2 12 3 9 5 -3 12 -1 16 5
11 19 16 10 5 -10z m24 -5 c-9 -14 -18 -25 -21 -25 -5 0 5 18 20 38 17 22 18
13 1 -13z m-307 -174 c65 -48 186 -137 268 -196 83 -59 157 -114 165 -122 15
-15 -229 153 -364 250 -38 27 -75 50 -84 51 -8 2 -21 11 -28 21 -9 12 -14 14
-14 6 0 -7 -9 -3 -21 10 l-20 24 5 -25 c5 -20 3 -19 -9 6 -8 17 -22 34 -31 38
-22 8 -44 -11 -44 -38 0 -17 -2 -18 -10 -6 -8 12 -10 10 -10 -9 0 -13 -3 -21
-7 -18 -3 4 -17 -9 -30 -28 -13 -20 -28 -33 -33 -30 -5 3 14 42 41 86 27 45
43 79 35 76 -9 -4 -16 3 -18 18 l-5 24 48 -25 c27 -13 101 -64 166 -113z m972
99 c0 -10 -3 -8 -9 5 -12 27 -12 43 0 25 5 -8 9 -22 9 -30z m-3222 -2 c-3 -8
-6 -5 -6 6 -1 11 2 17 5 13 3 -3 4 -12 1 -19z m20 -10 c-3 -8 -6 -5 -6 6 -1
11 2 17 5 13 3 -3 4 -12 1 -19z m1426 -3 c23 -22 30 -142 24 -369 -5 -193 -28
-390 -48 -410 -13 -14 -11 5 8 103 14 68 17 141 18 351 0 146 -3 277 -7 292
-5 16 -19 30 -35 36 l-28 10 27 1 c15 1 33 -6 41 -14z m385 -65 c24 -17 42
-34 39 -37 -7 -6 -108 58 -127 82 -14 17 -14 17 15 2 17 -8 50 -29 73 -47z
m1399 -37 c-2 -21 -4 -6 -4 32 0 39 2 55 4 38 2 -18 2 -50 0 -70z m-1832 75
c2 -2 6 -51 9 -109 2 -57 9 -117 15 -132 16 -40 14 -220 -4 -335 -14 -94 -32
-170 -34 -144 -1 6 -10 12 -21 12 -22 0 -28 35 -7 43 7 3 5 6 -5 6 -10 1 -18
-3 -18 -9 0 -5 -8 -10 -17 -9 -13 0 -14 2 -4 6 11 5 11 7 0 14 -10 6 -8 9 8 9
16 0 21 4 17 15 -4 8 -10 13 -14 10 -11 -7 -3 67 8 74 5 3 8 13 7 22 -2 12 4
15 24 12 22 -3 23 -2 6 5 -18 8 -17 9 8 16 22 5 27 12 27 37 0 17 -4 28 -9 24
-16 -9 -21 26 -24 152 -1 67 -5 119 -9 116 -5 -2 -9 11 -10 29 -4 76 -3 118 5
118 4 0 7 -5 7 -12 0 -9 3 -9 12 0 16 16 9 21 -43 32 l-44 9 53 -3 c29 -2 54
-5 57 -8z m204 -5 c3 -2 -1 -133 -7 -291 -7 -158 -12 -313 -12 -345 0 -36 -4
-56 -10 -52 -5 3 -10 1 -10 -4 0 -6 5 -11 10 -11 6 0 10 -8 9 -17 0 -11 -3
-13 -6 -6 -2 7 -14 13 -26 14 -12 0 -16 3 -9 6 22 9 2 23 -34 23 -19 0 -34 5
-34 11 0 7 15 9 43 4 30 -4 38 -3 27 4 -8 6 -28 11 -43 11 -17 0 -26 4 -22 10
4 6 12 7 18 3 7 -4 6 0 -2 10 -10 13 -10 17 -1 17 10 0 10 3 0 15 -7 8 -9 15
-4 15 5 0 9 29 8 65 0 52 3 65 15 66 12 0 10 3 -4 9 -11 5 -15 9 -8 9 7 1 10
8 7 16 -4 10 0 15 12 16 16 1 16 2 3 6 -19 5 -14 43 5 44 6 0 2 4 -9 9 -11 5
-14 9 -6 9 11 1 11 4 1 16 -11 13 -8 15 16 16 l29 1 -25 8 c-21 7 -22 8 -5 10
16 1 17 3 5 8 -13 6 -16 24 -11 69 0 6 13 14 29 16 25 4 25 4 -5 6 -24 1 -31
5 -27 16 4 8 10 15 16 15 5 0 6 -4 3 -10 -3 -5 4 -10 16 -10 18 0 19 2 9 15
-7 8 -22 15 -34 16 -19 1 -18 2 4 9 l25 8 -25 2 -25 2 24 7 c23 6 23 7 7 24
-16 15 -14 21 7 18 4 0 7 4 7 9 0 6 -6 10 -12 11 -9 0 -8 2 1 6 10 4 5 10 -15
19 l-29 14 30 -5 c27 -5 28 -4 13 8 -10 8 -15 17 -12 20 6 6 64 -2 73 -10z
m-456 -19 c36 -6 38 -9 32 -33 -3 -14 -15 -42 -25 -61 -10 -19 -27 -52 -37
-72 -20 -42 -28 -46 -37 -21 -4 10 2 26 18 42 32 35 66 92 66 113 0 11 -12 18
-42 23 -24 4 -50 11 -58 17 -15 9 -14 9 83 -8z m956 -15 c1 8 3 12 6 10 2 -3
1 -16 -2 -29 -6 -22 -7 -23 -14 -4 -11 27 -10 54 1 29 5 -12 9 -14 9 -6z m535
6 c-4 -8 -11 -15 -16 -15 -6 0 -5 6 2 15 7 8 14 15 16 15 2 0 1 -7 -2 -15z
m-1618 -69 c-20 -35 -36 -66 -36 -69 0 -3 18 -8 40 -12 54 -9 51 -25 -2 -18
-71 9 -71 11 -21 96 55 92 71 95 19 3z m274 52 c0 -52 -39 -178 -73 -238 -41
-72 -47 -75 -17 -9 27 61 26 66 -20 74 -22 4 -42 11 -46 16 -7 11 -8 12 50 -6
27 -8 50 -14 51 -13 1 2 11 43 22 91 22 97 19 106 -32 93 -14 -4 -25 -2 -25 4
0 5 20 10 45 10 40 0 45 -2 45 -22z m587 7 c0 -8 -4 -12 -9 -9 -5 3 -6 10 -3
15 9 13 12 11 12 -6z m250 -7 c-3 -8 -6 -5 -6 6 -1 11 2 17 5 13 3 -3 4 -12 1
-19z m-50 -30 c-3 -8 -6 -5 -6 6 -1 11 2 17 5 13 3 -3 4 -12 1 -19z m448 -13
c58 -14 59 -14 11 -9 -27 3 -58 9 -70 14 -32 13 -8 11 59 -5z m-2300 -15 c10
-11 16 -20 13 -20 -3 0 -13 9 -23 20 -10 11 -16 20 -13 20 3 0 13 -9 23 -20z
m116 3 c13 -16 12 -17 -3 -4 -10 7 -18 15 -18 17 0 8 8 3 21 -13z m986 -15
c-3 -7 -5 -2 -5 12 0 14 2 19 5 13 2 -7 2 -19 0 -25z m10 -50 c-3 -7 -5 -2 -5
12 0 14 2 19 5 13 2 -7 2 -19 0 -25z m-117 -9 c0 -4 -16 -2 -35 4 -19 6 -35
14 -35 18 0 4 16 2 35 -4 19 -6 35 -14 35 -18z m663 24 c-7 -2 -19 -2 -25 0
-7 3 -2 5 12 5 14 0 19 -2 13 -5z m-1682 -20 c13 -16 12 -17 -3 -4 -10 7 -18
15 -18 17 0 8 8 3 21 -13z m1636 11 c-3 -3 -12 -4 -19 -1 -8 3 -5 6 6 6 11 1
17 -2 13 -5z m58 -14 c-16 -4 -39 -8 -50 -8 -16 0 -15 2 5 8 14 4 36 8 50 8
22 0 22 -1 -5 -8z m73 -19 c11 -7 10 -9 -3 -15 -24 -9 -7 -28 23 -24 15 2 27
-3 30 -11 3 -10 -1 -12 -17 -8 -12 3 -19 1 -15 -5 3 -5 15 -8 25 -5 11 3 19 1
19 -4 0 -4 6 -6 14 -3 7 3 16 -2 20 -11 5 -13 1 -15 -17 -10 -19 5 -20 5 -4
-5 9 -6 27 -8 40 -4 15 4 19 3 12 -4 -5 -6 -21 -12 -35 -15 -16 -3 -9 -5 20
-7 l45 -2 -45 -13 c-50 -14 -46 -18 18 -16 58 1 53 -17 -8 -25 -27 -4 -50 -10
-50 -13 0 -4 16 -5 35 -3 19 2 35 0 35 -5 0 -6 14 -10 31 -11 40 -1 51 -12 13
-13 -16 0 -51 -7 -79 -14 l-50 -14 70 5 c39 3 81 8 95 10 22 4 22 3 -5 -10
-16 -8 -51 -20 -77 -27 -27 -6 -48 -16 -48 -21 0 -5 3 -7 8 -5 4 3 25 8 47 11
22 4 54 11 70 16 42 14 98 19 88 9 -7 -7 -35 -15 -65 -18 -3 -1 -4 -10 -1 -21
3 -11 0 -20 -6 -20 -6 0 -11 6 -11 14 0 9 -9 14 -20 13 -15 -1 -18 -6 -13 -26
6 -25 6 -25 -20 -8 -32 21 -44 22 -28 3 9 -10 8 -15 -3 -19 -9 -4 -20 1 -25
11 -7 13 -9 11 -8 -11 2 -24 27 -41 27 -17 0 5 6 7 13 4 7 -2 55 9 107 26 94
31 120 34 75 10 -15 -8 -23 -20 -20 -27 2 -8 0 -11 -5 -8 -14 9 -12 -1 6 -38
20 -40 9 -30 -23 20 -20 30 -23 33 -19 13 17 -74 17 -76 -3 -38 -29 52 -43 56
-26 7 22 -62 17 -70 -11 -19 -22 41 -24 36 -8 -20 9 -34 -6 -22 -22 16 -18 44
-31 38 -15 -7 13 -39 14 -52 2 -44 -5 3 -12 19 -16 35 -4 16 -11 33 -17 37 -8
4 -9 0 -5 -11 16 -40 20 -69 9 -62 -6 3 -13 20 -17 36 -4 17 -11 30 -16 30 -6
0 -8 -9 -5 -20 3 -11 9 -29 12 -40 3 -11 1 -20 -5 -20 -6 0 -15 18 -21 40 -14
52 -24 52 -16 0 4 -25 2 -40 -4 -40 -5 0 -10 10 -11 23 0 12 -5 31 -10 42 -6
14 -7 3 -3 -34 8 -67 -11 -62 -23 7 l-8 47 -5 -55 -6 -55 -11 45 -11 45 -2
-45 c-1 -35 -3 -40 -10 -25 -5 11 -9 35 -9 53 -1 17 -4 32 -8 32 -5 0 -7 -24
-6 -52 l2 -53 -13 45 c-10 32 -14 38 -15 21 -1 -24 -16 -21 -16 2 -1 7 -6 11
-13 9 -7 -1 -12 2 -12 8 0 5 12 11 28 12 17 0 11 3 -18 7 l-45 7 45 11 45 11
-45 2 -45 3 35 7 35 7 -35 3 -35 3 33 6 c31 6 32 7 12 19 -12 7 -20 8 -20 2 0
-5 -7 -10 -15 -10 -8 0 -15 6 -15 13 0 9 23 18 68 25 l67 11 -67 -5 c-43 -3
-68 -1 -68 6 0 5 10 10 23 10 12 0 29 5 37 10 10 7 2 8 -29 4 -32 -5 -42 -4
-37 4 4 7 19 13 34 13 23 1 22 3 -8 9 l-35 6 30 8 c49 13 52 16 13 13 -21 -2
-38 1 -38 5 0 4 9 8 19 8 11 0 23 4 26 10 4 6 -7 8 -27 4 -26 -4 -29 -3 -16 5
9 6 40 15 70 21 l53 9 -69 -4 c-80 -5 -78 8 4 24 l55 10 -65 -5 c-75 -6 -64 9
15 21 28 4 45 10 38 12 -6 2 -34 0 -62 -5 -28 -5 -51 -6 -51 -2 0 4 27 13 60
19 33 7 60 15 60 18 0 5 -81 -4 -114 -14 -11 -3 -16 -1 -12 5 3 6 31 14 61 17
30 4 55 12 55 17 0 5 -3 7 -7 5 -5 -3 -33 -7 -63 -10 l-55 -6 50 14 c28 7 62
14 77 14 15 1 29 5 33 10 6 11 -52 6 -120 -9 -51 -12 -59 -4 -9 9 81 21 132
25 152 12z m-1793 -21 c10 -11 16 -20 13 -20 -3 0 -13 9 -23 20 -10 11 -16 20
-13 20 3 0 13 -9 23 -20z m808 -7 c-7 -2 -19 -2 -25 0 -7 3 -2 5 12 5 14 0 19
-2 13 -5z m-30 -13 c7 0 4 -7 -6 -14 -17 -13 -17 -14 1 -18 11 -3 37 -4 58 -2
26 2 33 0 24 -7 -11 -6 -7 -9 15 -10 17 0 39 -5 50 -10 16 -7 14 -8 -10 -4
-16 2 -66 9 -110 16 -44 7 -81 13 -83 15 -2 1 2 12 8 24 7 13 17 19 27 16 8
-3 20 -6 26 -6z m74 4 c-3 -3 -12 -4 -19 -1 -8 3 -5 6 6 6 11 1 17 -2 13 -5z
m-8 -18 c-12 -10 -60 -16 -54 -6 3 5 18 10 32 10 15 0 24 -2 22 -4z m161 -6
c0 -5 -5 -10 -11 -10 -5 0 -7 5 -4 10 3 6 8 10 11 10 2 0 4 -4 4 -10z m109
-324 c-18 -76 -35 -133 -37 -127 -3 8 -9 8 -23 1 -15 -9 -19 -7 -19 5 0 9 5
13 10 10 6 -3 10 -2 10 4 0 5 -5 11 -10 13 -6 2 -8 17 -4 38 6 29 9 31 15 15
7 -18 8 -17 9 5 1 14 3 32 4 40 1 8 -3 21 -9 29 -7 11 -7 13 3 7 7 -4 12 -2
12 4 0 6 4 8 10 5 6 -3 7 1 3 10 -4 12 -8 14 -13 4 -5 -7 -7 -2 -7 14 2 20 5
23 16 14 12 -10 13 -9 3 9 -7 13 -8 34 -2 58 10 48 21 59 15 17 -2 -17 0 -31
5 -31 4 0 8 18 8 39 0 22 6 49 11 60 6 11 12 32 13 48 1 15 4 -12 6 -62 3 -75
-2 -113 -29 -229z m-126 289 c-3 -9 -8 -14 -10 -11 -3 3 -2 9 2 15 9 16 15 13
8 -4z m1282 -178 c15 -16 -59 29 -172 105 -56 37 -104 72 -108 78 -7 11 263
-165 280 -183z m-1412 102 c59 -12 106 -24 103 -26 -5 -6 -221 35 -249 47 -19
9 -18 10 8 6 17 -3 79 -15 138 -27z m142 -126 c-21 -65 -40 -135 -43 -156 -2
-20 -9 -40 -14 -43 -5 -4 -7 10 -3 33 7 46 87 294 93 288 2 -2 -13 -57 -33
-122z m-362 47 c-14 -39 -24 -72 -22 -74 2 -1 65 -15 139 -30 148 -30 165 -34
158 -41 -2 -3 -62 7 -134 21 -71 14 -140 26 -154 28 -14 2 -26 10 -28 18 -3
15 53 148 62 148 3 0 -6 -32 -21 -70z m203 56 c27 -8 62 -17 78 -21 l29 -6
-31 -19 c-19 -12 -44 -18 -64 -16 -45 5 -78 16 -78 28 0 5 -5 6 -12 2 -7 -5
-8 -3 -3 6 5 8 1 18 -10 27 -17 12 -16 13 11 13 17 0 53 -6 80 -14z m1137 -3
c-7 -2 -19 -2 -25 0 -7 3 -2 5 12 5 14 0 19 -2 13 -5z m-1009 -122 c-15 -44
-31 -81 -35 -81 -8 0 9 62 36 128 28 70 28 41 -1 -47z m-221 63 c39 -7 42 -10
27 -34 -6 -10 -10 -11 -10 -2 0 6 -7 12 -16 12 -8 0 -12 5 -9 10 3 6 0 10 -9
10 -8 0 -16 -5 -18 -11 -2 -5 -10 -7 -19 -4 -21 8 -21 37 0 31 9 -3 33 -8 54
-12z m1347 -50 c0 -2 -7 -4 -15 -4 -8 0 -15 4 -15 10 0 5 7 7 15 4 8 -4 15 -8
15 -10z m-93 -26 c-3 -8 -6 -5 -6 6 -1 11 2 17 5 13 3 -3 4 -12 1 -19z m132
-50 c6 -18 7 -28 2 -23 -10 12 -25 55 -18 55 3 0 10 -15 16 -32z m92 15 c13
-16 12 -17 -3 -4 -10 7 -18 15 -18 17 0 8 8 3 21 -13z m-551 -63 c0 -5 -2 -10
-4 -10 -3 0 -8 5 -11 10 -3 6 -1 10 4 10 6 0 11 -4 11 -10z m57 -56 c-3 -3
-12 -4 -19 -1 -8 3 -5 6 6 6 11 1 17 -2 13 -5z m-403 -23 c3 -5 -2 -11 -12
-13 -11 -3 -19 0 -19 8 0 16 23 19 31 5z"/>
<path d="M2095 4390 c-3 -6 1 -7 9 -4 18 7 21 14 7 14 -6 0 -13 -4 -16 -10z"/>
<path d="M2788 4393 c7 -3 16 -2 19 1 4 3 -2 6 -13 5 -11 0 -14 -3 -6 -6z"/>
<path d="M2863 4365 c27 -15 51 -24 54 -21 6 6 -42 31 -77 40 -14 4 -3 -5 23
-19z"/>
<path d="M2019 4333 c-13 -16 -12 -17 4 -4 9 7 17 15 17 17 0 8 -8 3 -21 -13z"/>
<path d="M2200 4320 c-19 -11 -30 -19 -25 -19 6 0 26 8 45 19 19 11 31 19 25
19 -5 0 -26 -8 -45 -19z"/>
<path d="M928 4153 c7 -3 16 -2 19 1 4 3 -2 6 -13 5 -11 0 -14 -3 -6 -6z"/>
<path d="M885 4141 c-6 -11 13 -26 22 -17 4 3 0 6 -8 6 -11 0 -11 2 1 10 9 6
10 10 3 10 -6 0 -14 -4 -18 -9z"/>
<path d="M855 4111 c-6 -11 9 -23 19 -14 9 9 7 23 -3 23 -6 0 -12 -4 -16 -9z"/>
<path d="M1055 4081 c-3 -5 -1 -12 5 -16 5 -3 10 1 10 9 0 18 -6 21 -15 7z"/>
<path d="M1321 4004 c0 -11 3 -14 6 -6 3 7 2 16 -1 19 -3 4 -6 -2 -5 -13z"/>
<path d="M1462 4004 c-14 -15 -8 -34 11 -34 7 0 6 4 -3 10 -12 8 -12 10 3 16
23 8 29 2 21 -20 -5 -12 -14 -16 -30 -13 -19 3 -22 0 -21 -22 1 -16 -3 -25
-10 -23 -7 1 -13 -3 -13 -9 0 -6 7 -9 15 -5 8 3 15 1 15 -5 0 -5 -7 -12 -15
-15 -24 -10 -17 -26 7 -18 20 6 21 5 10 -9 -8 -9 -20 -13 -28 -10 -8 3 -14 1
-14 -5 0 -6 10 -9 23 -8 20 2 23 -1 19 -21 -2 -12 -10 -23 -17 -23 -8 0 -21
-7 -30 -16 -15 -15 -15 -18 2 -38 10 -11 11 -15 3 -9 -9 9 -17 9 -26 2 -10 -8
-12 -3 -8 28 4 31 3 35 -6 20 -6 -9 -9 -21 -5 -26 9 -16 -16 -25 -27 -10 -8
11 -8 10 -4 -4 3 -10 6 -20 6 -23 0 -2 6 -1 14 2 20 8 26 -19 8 -36 -14 -13
-15 -13 -10 0 4 11 -3 15 -26 16 -17 1 -23 -1 -13 -3 21 -5 22 -26 2 -43 -10
-9 -15 -9 -15 -1 0 6 5 11 10 11 6 0 10 5 10 11 0 8 -4 9 -13 0 -8 -6 -18 -7
-22 -3 -5 4 -5 -1 -1 -12 4 -13 2 -17 -7 -13 -8 3 -14 -3 -14 -16 -2 -15 1
-17 10 -8 14 14 30 15 22 1 -3 -5 -1 -10 5 -10 6 0 8 -5 4 -11 -5 -8 -9 -8
-14 1 -5 8 -15 4 -35 -14 -16 -15 -31 -24 -34 -21 -3 4 1 11 9 16 12 8 11 9
-5 7 -11 -2 -19 -10 -17 -19 1 -9 -10 -21 -24 -28 -25 -11 -26 -13 -9 -31 13
-14 14 -23 5 -39 -6 -12 -13 -21 -16 -21 -2 0 0 9 6 19 16 32 12 36 -12 11
-13 -14 -23 -19 -26 -12 -2 7 -11 12 -19 12 -14 0 -13 -3 3 -22 10 -13 4 -10
-14 6 -17 16 -35 26 -39 23 -3 -4 -1 -7 5 -7 20 0 13 -17 -9 -23 -14 -4 -20
-11 -16 -21 4 -10 1 -13 -9 -9 -7 3 -14 16 -14 29 0 13 -5 24 -10 24 -6 0 -9
-6 -8 -12 2 -9 -9 -12 -32 -11 -28 1 -31 0 -17 -9 10 -5 27 -8 38 -5 16 4 19
2 13 -16 -3 -12 -3 -19 1 -15 4 4 18 3 32 -3 16 -6 22 -6 18 1 -3 6 4 10 17 9
13 0 17 -3 10 -6 -6 -2 -9 -9 -6 -14 3 -6 11 -5 20 2 11 9 14 8 14 -2 0 -8 9
-4 21 11 12 14 19 18 16 10 -2 -8 3 -22 11 -30 14 -13 15 -12 9 4 -6 15 -5 17
6 8 10 -9 17 -8 27 1 10 9 11 9 6 0 -9 -16 10 -17 19 -2 4 6 13 8 21 5 17 -6
18 6 3 21 -7 7 -6 12 5 16 10 4 13 1 10 -7 -9 -24 14 -28 27 -5 8 16 13 18 19
9 6 -9 12 -8 27 6 11 11 26 20 34 22 8 2 23 13 34 25 14 14 15 17 3 8 -12 -9
-18 -10 -18 -2 0 10 5 12 40 15 9 1 14 9 12 20 -4 19 26 59 38 51 4 -3 7 3 6
13 0 9 5 16 11 15 7 -2 20 11 29 28 8 17 11 28 5 25 -15 -10 -14 0 4 34 9 17
11 30 6 30 -5 0 -8 8 -6 18 2 9 4 22 5 27 1 6 5 1 10 -10 8 -19 9 -19 9 3 1
12 -5 22 -11 22 -9 0 -9 3 -2 8 6 4 14 15 17 26 6 14 4 17 -8 12 -14 -5 -14
-3 -2 15 16 22 11 63 -6 52 -5 -3 -7 -1 -4 5 10 15 -3 42 -19 42 -8 0 -14 5
-14 11 0 5 6 7 13 3 8 -6 8 -3 -1 9 -8 9 -10 22 -6 28 4 7 3 9 -4 5 -6 -3 -13
-2 -17 4 -8 14 -17 12 -33 -6z m49 -371 c-12 -20 -14 -14 -5 12 4 9 9 14 11
11 3 -2 0 -13 -6 -23z m-164 2 c0 -8 -4 -12 -9 -9 -4 3 -8 9 -8 15 0 5 4 9 8
9 5 0 9 -7 9 -15z m-19 -30 c-3 -3 -9 2 -12 12 -6 14 -5 15 5 6 7 -7 10 -15 7
-18z m132 -10 c-7 -9 -15 -13 -19 -10 -3 3 1 10 9 15 21 14 24 12 10 -5z
m-110 -35 c0 -5 -5 -10 -11 -10 -5 0 -7 5 -4 10 3 6 8 10 11 10 2 0 4 -4 4
-10z m-147 -34 c4 -10 1 -13 -8 -9 -8 3 -12 9 -9 14 7 12 11 11 17 -5z m-128
-86 c3 -5 1 -10 -4 -10 -6 0 -11 5 -11 10 0 6 2 10 4 10 3 0 8 -4 11 -10z"/>
<path d="M705 3900 c-3 -5 1 -10 10 -10 9 0 13 5 10 10 -3 6 -8 10 -10 10 -2
0 -7 -4 -10 -10z"/>
<path d="M1390 3900 c0 -5 5 -10 11 -10 5 0 7 5 4 10 -3 6 -8 10 -11 10 -2 0
-4 -4 -4 -10z"/>
<path d="M720 3856 c0 -2 7 -9 15 -16 9 -7 15 -8 15 -2 0 5 -7 12 -15 16 -8 3
-15 4 -15 2z"/>
<path d="M722 3760 c-8 -13 -8 -20 -2 -20 7 0 7 -6 1 -18 -6 -12 -6 -23 0 -33
8 -12 9 -12 7 1 -1 8 4 26 11 39 9 17 10 21 1 16 -9 -5 -10 -1 -5 14 8 26 3
27 -13 1z"/>
<path d="M1240 3669 c0 -5 5 -7 10 -4 6 3 10 8 10 11 0 2 -4 4 -10 4 -5 0 -10
-5 -10 -11z"/>
<path d="M735 3660 c3 -5 8 -10 11 -10 2 0 4 5 4 10 0 6 -5 10 -11 10 -5 0 -7
-4 -4 -10z"/>
<path d="M750 3623 c0 -6 8 -17 18 -24 16 -13 16 -13 2 6 -8 11 -16 22 -17 24
-2 2 -3 0 -3 -6z"/>
<path d="M1240 3613 c0 -13 5 -23 10 -23 13 0 13 11 0 30 -8 12 -10 11 -10 -7z"/>
<path d="M790 3600 c6 -11 12 -20 14 -20 2 0 2 9 -1 20 -3 11 -9 20 -15 20 -5
0 -4 -9 2 -20z"/>
<path d="M1175 3590 c3 -5 8 -10 11 -10 2 0 4 5 4 10 0 6 -5 10 -11 10 -5 0
-7 -4 -4 -10z"/>
<path d="M820 3580 c0 -5 5 -10 11 -10 5 0 7 5 4 10 -3 6 -8 10 -11 10 -2 0
-4 -4 -4 -10z"/>
<path d="M807 3559 c7 -7 15 -10 18 -7 3 3 -2 9 -12 12 -14 6 -15 5 -6 -5z"/>
<path d="M1459 3553 c-13 -16 -12 -17 4 -4 9 7 17 15 17 17 0 8 -8 3 -21 -13z"/>
<path d="M1135 3540 c3 -10 -5 -21 -22 -32 -16 -10 -23 -18 -17 -18 7 0 22 9
35 19 20 16 22 22 11 33 -11 11 -12 10 -7 -2z"/>
<path d="M1050 3520 c0 -5 5 -10 11 -10 5 0 7 5 4 10 -3 6 -8 10 -11 10 -2 0
-4 -4 -4 -10z"/>
<path d="M860 3510 c0 -5 5 -10 11 -10 5 0 7 5 4 10 -3 6 -8 10 -11 10 -2 0
-4 -4 -4 -10z"/>
<path d="M907 3499 c7 -7 15 -10 18 -7 3 3 -2 9 -12 12 -14 6 -15 5 -6 -5z"/>
<path d="M1140 3495 c-8 -9 -8 -15 -2 -15 12 0 26 19 19 26 -2 2 -10 -2 -17
-11z"/>
<path d="M874 3478 c-4 -7 -3 -8 4 -4 6 4 22 2 34 -4 22 -11 22 -10 4 4 -24
19 -32 20 -42 4z"/>
<path d="M945 3480 c3 -5 8 -10 11 -10 2 0 4 5 4 10 0 6 -5 10 -11 10 -5 0 -7
-4 -4 -10z"/>
<path d="M970 3481 c0 -6 4 -13 10 -16 6 -3 7 1 4 9 -7 18 -14 21 -14 7z"/>
<path d="M3688 4213 c7 -3 16 -2 19 1 4 3 -2 6 -13 5 -11 0 -14 -3 -6 -6z"/>
<path d="M2070 4005 c-7 -9 -11 -17 -9 -20 3 -2 10 5 17 15 14 24 10 26 -8 5z"/>
<path d="M2457 3643 c-4 -3 -7 -11 -7 -17 0 -6 5 -5 12 2 6 6 9 14 7 17 -3 3
-9 2 -12 -2z"/>
<path d="M2400 3565 c-14 -16 -3 -20 19 -6 8 5 9 11 3 15 -5 3 -15 -1 -22 -9z"/>
<path d="M2623 3567 c0 -7 9 -13 19 -13 10 0 18 1 18 3 0 1 -8 7 -18 12 -13 7
-19 6 -19 -2z"/>
<path d="M2325 3330 c-3 -6 1 -7 9 -4 18 7 21 14 7 14 -6 0 -13 -4 -16 -10z"/>
<path d="M4110 3200 c-8 -5 -10 -10 -5 -10 6 0 17 5 25 10 8 5 11 10 5 10 -5
0 -17 -5 -25 -10z"/>
<path d="M2731 3110 c0 -8 4 -24 9 -35 l9 -20 0 20 c0 11 -4 27 -9 35 -9 13
-10 13 -9 0z"/>
<path d="M3056 2849 c2 -4 -5 -14 -16 -22 -11 -7 -17 -17 -14 -20 7 -6 53 32
54 44 0 3 -7 6 -15 6 -8 0 -12 -4 -9 -8z"/>
<path d="M2940 2675 c-7 -8 -8 -15 -2 -15 5 0 15 7 22 15 7 8 8 15 2 15 -5 0
-15 -7 -22 -15z"/>
<path d="M1890 2956 c0 -3 9 -10 20 -16 11 -6 20 -8 20 -6 0 3 -9 10 -20 16
-11 6 -20 8 -20 6z"/>
<path d="M1834 2932 c3 -5 2 -12 -4 -14 -5 -1 0 -14 13 -28 12 -14 18 -20 13
-12 -7 9 -5 17 5 24 11 8 10 9 -5 4 -13 -5 -17 -2 -13 9 4 8 1 17 -5 21 -6 4
-8 3 -4 -4z"/>
<path d="M1885 2920 c-3 -6 1 -7 9 -4 18 7 21 14 7 14 -6 0 -13 -4 -16 -10z"/>
<path d="M1935 2850 c-3 -6 1 -7 9 -4 18 7 21 14 7 14 -6 0 -13 -4 -16 -10z"/>
<path d="M2157 2503 c-7 -11 10 -40 18 -31 4 4 3 14 -3 24 -5 9 -12 12 -15 7z"/>
<path d="M2210 2500 c-9 -6 -10 -10 -3 -10 6 0 15 5 18 10 8 12 4 12 -15 0z"/>
<path d="M2117 2483 c-3 -5 1 -14 8 -20 11 -10 13 -9 12 7 -1 20 -12 26 -20
13z"/>
<path d="M2198 2464 c-39 -21 -35 -28 5 -8 37 19 44 24 31 24 -5 -1 -21 -8
-36 -16z"/>
<path d="M2165 2409 c-11 -16 -1 -19 13 -3 7 8 8 14 3 14 -5 0 -13 -5 -16 -11z"/>
<path d="M2190 2400 c-8 -5 -10 -10 -5 -10 6 0 17 5 25 10 8 5 11 10 5 10 -5
0 -17 -5 -25 -10z"/>
<path d="M2178 2373 c7 -3 16 -2 19 1 4 3 -2 6 -13 5 -11 0 -14 -3 -6 -6z"/>
<path d="M2333 2360 c1 -11 5 -20 9 -20 11 0 10 28 -1 35 -6 3 -9 -4 -8 -15z"/>
<path d="M2440 2590 c0 -5 5 -10 11 -10 5 0 7 5 4 10 -3 6 -8 10 -11 10 -2 0
-4 -4 -4 -10z"/>
<path d="M3390 2840 c0 -5 5 -10 10 -10 6 0 10 5 10 10 0 6 -4 10 -10 10 -5 0
-10 -4 -10 -10z"/>
<path d="M3473 2809 c36 -18 57 -36 57 -47 0 -12 2 -14 8 -4 7 10 27 4 88 -23
43 -19 87 -40 98 -46 13 -7 16 -7 12 0 -9 14 -288 151 -306 151 -8 -1 11 -14
43 -31z"/>
<path d="M3740 2659 c0 -5 5 -7 10 -4 6 3 10 8 10 11 0 2 -4 4 -10 4 -5 0 -10
-5 -10 -11z"/>
<path d="M3029 2613 c-13 -16 -12 -17 4 -4 16 13 21 21 13 21 -2 0 -10 -8 -17
-17z"/>
<path d="M3499 2513 c6 -12 16 -25 22 -29 8 -4 7 -9 -2 -15 -10 -6 -7 -8 8 -6
l23 1 -23 26 c-12 14 -26 30 -31 35 -4 6 -3 0 3 -12z"/>
<path d="M3471 2473 c-9 -19 -9 -29 -1 -37 9 -8 11 -7 10 4 -4 28 0 41 10 35
6 -3 10 -2 10 4 0 22 -18 19 -29 -6z"/>
<path d="M3450 2420 c0 -5 5 -10 11 -10 5 0 7 5 4 10 -3 6 -8 10 -11 10 -2 0
-4 -4 -4 -10z"/>
<path d="M3440 2391 c0 -5 7 -11 15 -15 8 -3 15 -1 15 3 0 5 -7 11 -15 15 -8
3 -15 1 -15 -3z"/>
<path d="M3440 2359 c12 -8 12 -12 2 -16 -10 -4 -10 -8 0 -21 11 -13 10 -15
-4 -9 -12 4 -15 2 -11 -9 3 -7 1 -14 -5 -14 -6 0 -8 -10 -4 -22 4 -16 2 -20
-10 -16 -22 9 -10 -40 13 -53 24 -12 25 -1 2 18 -16 13 -16 13 7 8 18 -4 21
-3 11 3 -12 8 -11 18 4 60 18 51 16 82 -7 82 -9 0 -9 -3 2 -11z"/>
<path d="M3558 2223 c7 -3 16 -2 19 1 4 3 -2 6 -13 5 -11 0 -14 -3 -6 -6z"/>
<path d="M3533 2203 c9 -2 23 -2 30 0 6 3 -1 5 -18 5 -16 0 -22 -2 -12 -5z"/>
<path d="M3305 2160 c3 -5 8 -10 11 -10 2 0 4 5 4 10 0 6 -5 10 -11 10 -5 0
-7 -4 -4 -10z"/>
<path d="M3010 2150 c0 -5 5 -10 10 -10 6 0 10 5 10 10 0 6 -4 10 -10 10 -5 0
-10 -4 -10 -10z"/>
<path d="M1700 2566 c0 -3 9 -10 20 -16 11 -6 20 -8 20 -6 0 3 -9 10 -20 16
-11 6 -20 8 -20 6z"/>
<path d="M1372 2510 c0 -14 4 -38 8 -55 7 -27 8 -27 8 -5 0 14 -4 39 -8 55 -7
27 -8 27 -8 5z"/>
<path d="M1967 2509 c7 -7 15 -10 18 -7 3 3 -2 9 -12 12 -14 6 -15 5 -6 -5z"/>
<path d="M1520 2419 c0 -5 5 -7 10 -4 6 3 10 8 10 11 0 2 -4 4 -10 4 -5 0 -10
-5 -10 -11z"/>
<path d="M2035 2390 c3 -5 11 -10 16 -10 6 0 7 5 4 10 -3 6 -11 10 -16 10 -6
0 -7 -4 -4 -10z"/>
<path d="M1686 2271 c-3 -4 6 -6 19 -3 14 2 25 6 25 8 0 8 -39 4 -44 -5z"/>
<path d="M1718 2243 c7 -3 16 -2 19 1 4 3 -2 6 -13 5 -11 0 -14 -3 -6 -6z"/>
<path d="M1638 2233 c6 -2 18 -2 25 0 6 3 1 5 -13 5 -14 0 -19 -2 -12 -5z"/>
<path d="M1818 2223 c6 -2 18 -2 25 0 6 3 1 5 -13 5 -14 0 -19 -2 -12 -5z"/>
<path d="M1718 2213 c7 -3 16 -2 19 1 4 3 -2 6 -13 5 -11 0 -14 -3 -6 -6z"/>
<path d="M1648 2203 c7 -3 16 -2 19 1 4 3 -2 6 -13 5 -11 0 -14 -3 -6 -6z"/>
<path d="M1451 2184 c0 -11 3 -14 6 -6 3 7 2 16 -1 19 -3 4 -6 -2 -5 -13z"/>
<path d="M1798 2193 c7 -3 16 -2 19 1 4 3 -2 6 -13 5 -11 0 -14 -3 -6 -6z"/>
<path d="M1838 2193 c7 -3 16 -2 19 1 4 3 -2 6 -13 5 -11 0 -14 -3 -6 -6z"/>
<path d="M1898 2193 c7 -3 16 -2 19 1 4 3 -2 6 -13 5 -11 0 -14 -3 -6 -6z"/>
<path d="M1810 2170 c0 -5 5 -10 11 -10 5 0 7 5 4 10 -3 6 -8 10 -11 10 -2 0
-4 -4 -4 -10z"/>
<path d="M1860 2170 c0 -5 5 -10 10 -10 6 0 10 5 10 10 0 6 -4 10 -10 10 -5 0
-10 -4 -10 -10z"/>
<path d="M1890 2170 c0 -5 5 -10 11 -10 5 0 7 5 4 10 -3 6 -8 10 -11 10 -2 0
-4 -4 -4 -10z"/>
<path d="M1735 2160 c3 -5 8 -10 11 -10 2 0 4 5 4 10 0 6 -5 10 -11 10 -5 0
-7 -4 -4 -10z"/>
<path d="M1760 2161 c0 -5 9 -7 20 -4 11 3 20 7 20 9 0 2 -9 4 -20 4 -11 0
-20 -4 -20 -9z"/>
<path d="M2170 2146 c0 -2 7 -7 16 -10 8 -3 12 -2 9 4 -6 10 -25 14 -25 6z"/>
<path d="M1050 1824 c0 -8 5 -12 10 -9 6 4 8 11 5 16 -9 14 -15 11 -15 -7z"/>
<path d="M958 1723 c7 -3 16 -2 19 1 4 3 -2 6 -13 5 -11 0 -14 -3 -6 -6z"/>
<path d="M926 1675 c-11 -8 -15 -15 -9 -15 6 0 16 7 23 15 16 19 11 19 -14 0z"/>
<path d="M1186 1665 c10 -8 24 -14 29 -14 6 0 1 6 -9 14 -11 8 -24 15 -30 15
-5 0 -1 -7 10 -15z"/>
<path d="M3753 2280 c0 -47 2 -66 4 -42 2 23 2 61 0 85 -2 23 -4 4 -4 -43z"/>
<path d="M3836 2258 c-3 -7 -7 -29 -10 -48 -3 -19 -8 -46 -12 -60 -5 -18 -4
-22 4 -15 7 6 16 39 20 73 8 57 7 80 -2 50z"/>
<path d="M3672 2060 c0 -14 2 -19 5 -12 2 6 2 18 0 25 -3 6 -5 1 -5 -13z"/>
<path d="M3858 1993 c7 -3 16 -2 19 1 4 3 -2 6 -13 5 -11 0 -14 -3 -6 -6z"/>
<path d="M3749 1863 c-13 -16 -12 -17 4 -4 16 13 21 21 13 21 -2 0 -10 -8 -17
-17z"/>
<path d="M3875 1830 c-3 -6 1 -7 9 -4 18 7 21 14 7 14 -6 0 -13 -4 -16 -10z"/>
<path d="M3815 1663 c-66 -46 -92 -72 -35 -36 68 42 94 62 89 67 -2 2 -26 -12
-54 -31z"/>
<path d="M4060 1662 c0 -5 7 -16 16 -23 14 -12 16 -11 13 5 -4 20 -29 35 -29
18z"/>
<path d="M3874 1635 c-10 -8 -14 -15 -8 -15 6 0 17 7 24 15 16 19 9 19 -16 0z"/>
<path d="M1350 2071 c0 -6 4 -13 10 -16 6 -3 7 1 4 9 -7 18 -14 21 -14 7z"/>
<path d="M2265 1996 c33 -14 87 -44 120 -66 l60 -41 -39 36 c-43 38 -122 80
-171 90 -16 4 -3 -5 30 -19z"/>
<path d="M1833 2003 c9 -2 23 -2 30 0 6 3 -1 5 -18 5 -16 0 -22 -2 -12 -5z"/>
<path d="M1893 1993 c9 -2 25 -2 35 0 9 3 1 5 -18 5 -19 0 -27 -2 -17 -5z"/>
<path d="M1997 1976 c28 -7 73 -16 100 -19 l48 -6 -55 14 c-30 8 -75 17 -100
19 l-45 5 52 -13z"/>
<path d="M2918 1963 c7 -3 16 -2 19 1 4 3 -2 6 -13 5 -11 0 -14 -3 -6 -6z"/>
<path d="M2868 1953 c7 -3 16 -2 19 1 4 3 -2 6 -13 5 -11 0 -14 -3 -6 -6z"/>
<path d="M2178 1943 c7 -3 16 -2 19 1 4 3 -2 6 -13 5 -11 0 -14 -3 -6 -6z"/>
<path d="M2818 1943 c6 -2 18 -2 25 0 6 3 1 5 -13 5 -14 0 -19 -2 -12 -5z"/>
<path d="M2218 1933 c7 -3 16 -2 19 1 4 3 -2 6 -13 5 -11 0 -14 -3 -6 -6z"/>
<path d="M2778 1933 c7 -3 16 -2 19 1 4 3 -2 6 -13 5 -11 0 -14 -3 -6 -6z"/>
<path d="M2878 1933 c7 -3 16 -2 19 1 4 3 -2 6 -13 5 -11 0 -14 -3 -6 -6z"/>
<path d="M2838 1923 c7 -3 16 -2 19 1 4 3 -2 6 -13 5 -11 0 -14 -3 -6 -6z"/>
<path d="M2738 1903 c6 -2 18 -2 25 0 6 3 1 5 -13 5 -14 0 -19 -2 -12 -5z"/>
<path d="M2686 1891 c-4 -5 3 -7 14 -4 23 6 26 13 6 13 -8 0 -17 -4 -20 -9z"/>
<path d="M493 1606 c11 -16 8 -28 -5 -20 -8 5 -7 -1 3 -16 14 -22 49 -37 49
-21 0 4 -12 20 -27 37 -16 16 -25 25 -20 20z m25 -51 c-3 -3 -9 2 -12 12 -6
14 -5 15 5 6 7 -7 10 -15 7 -18z"/>
<path d="M2861 1508 c-1 -31 -26 -38 -51 -15 -12 10 -12 9 -2 -4 17 -23 52
-31 58 -14 3 7 4 24 1 37 -4 21 -4 20 -6 -4z"/>
<path d="M3090 1400 c0 -5 9 -14 20 -20 11 -6 20 -9 20 -8 0 2 -9 11 -20 21
-11 9 -20 13 -20 7z"/>
<path d="M3190 1356 c0 -3 9 -10 19 -16 15 -7 22 -7 27 2 4 7 4 10 -1 6 -4 -4
-16 -3 -26 3 -11 5 -19 7 -19 5z"/>
<path d="M3430 1326 c6 -8 18 -12 27 -9 12 5 12 7 1 14 -7 5 -19 9 -27 9 -11
0 -11 -3 -1 -14z"/>
<path d="M3436 1282 c-3 -5 1 -9 9 -9 8 0 12 4 9 9 -3 4 -7 8 -9 8 -2 0 -6 -4
-9 -8z"/>
<path d="M3520 1180 c-6 -11 -8 -20 -6 -20 3 0 10 9 16 20 6 11 8 20 6 20 -3
0 -10 -9 -16 -20z"/>
<path d="M1880 1613 c0 -12 5 -25 11 -28 16 -11 17 -2 2 25 -12 24 -13 24 -13
3z"/>
<path d="M1717 1478 c2 -5 10 -8 18 -8 8 0 16 3 18 8 3 4 -5 7 -18 7 -13 0
-21 -3 -18 -7z"/>
<path d="M2250 1380 c6 -11 13 -20 16 -20 2 0 0 9 -6 20 -6 11 -13 20 -16 20
-2 0 0 -9 6 -20z"/>
<path d="M1584 1348 c-3 -10 -10 -16 -15 -13 -5 4 -9 -1 -9 -9 0 -23 17 -20
25 4 4 11 10 18 15 15 4 -3 10 1 13 8 3 8 -1 14 -9 14 -7 0 -16 -9 -20 -19z"/>
<path d="M1860 1351 c0 -6 4 -13 10 -16 6 -3 7 1 4 9 -7 18 -14 21 -14 7z"/>
<path d="M2020 1290 c0 -6 -3 -9 -8 -6 -9 5 -47 -22 -40 -29 3 -3 13 1 21 9
12 12 17 13 20 3 4 -9 6 -9 6 1 1 7 6 10 11 7 6 -3 10 -2 10 4 0 5 -4 13 -10
16 -5 3 -10 1 -10 -5z"/>
<path d="M1670 1260 c0 -5 5 -10 11 -10 5 0 7 5 4 10 -3 6 -8 10 -11 10 -2 0
-4 -4 -4 -10z"/>
<path d="M1645 1249 c-4 -6 -4 -13 -1 -16 3 -4 -6 -15 -21 -26 l-28 -19 30 7
c28 6 45 20 45 38 0 5 -5 5 -12 1 -8 -5 -9 -2 -5 9 7 19 2 23 -8 6z"/>
<path d="M420 1531 c0 -5 5 -13 10 -16 6 -3 10 -2 10 4 0 5 -4 13 -10 16 -5 3
-10 2 -10 -4z"/>
<path d="M1050 1425 c-25 -13 -61 -40 -80 -61 l-35 -38 45 37 c24 21 67 48 95
62 27 13 43 24 35 24 -8 0 -35 -11 -60 -24z"/>
<path d="M861 1224 c-18 -71 -22 -90 -25 -120 -1 -16 -5 -34 -8 -39 -9 -16 0
-72 20 -117 l17 -41 -3 112 c-3 64 1 139 8 173 13 67 7 91 -9 32z"/>
<path d="M826 1185 c-3 -9 -5 -29 -5 -43 1 -20 3 -17 9 13 8 43 7 57 -4 30z"/>
<path d="M881 1034 c0 -11 3 -14 6 -6 3 7 2 16 -1 19 -3 4 -6 -2 -5 -13z"/>
<path d="M1215 740 c3 -5 8 -10 11 -10 2 0 4 5 4 10 0 6 -5 10 -11 10 -5 0 -7
-4 -4 -10z"/>
<path d="M4171 1323 c19 -23 36 -39 38 -37 3 3 -12 21 -34 42 l-38 37 34 -42z"/>
<path d="M3843 1322 c-7 -5 1 -15 25 -30 36 -22 36 -22 12 -1 -14 12 -24 26
-22 30 3 11 1 11 -15 1z"/>
<path d="M4198 1251 c33 -46 66 -103 73 -125 11 -35 14 -38 17 -17 5 33 -7
113 -17 107 -4 -3 -15 11 -25 30 -9 20 -22 33 -29 31 -6 -3 -27 10 -46 27 -25
24 -19 12 27 -53z"/>
<path d="M3865 1215 c47 -63 53 -69 29 -27 -10 18 -30 43 -43 55 -14 13 -8 1
14 -28z"/>
<path d="M3920 1256 c0 -2 8 -10 18 -17 15 -13 16 -12 3 4 -13 16 -21 21 -21
13z"/>
<path d="M4111 1190 c14 -31 19 -36 19 -24 0 6 -7 19 -16 30 -14 18 -14 18 -3
-6z"/>
<path d="M3846 1135 c8 -37 14 -45 14 -19 0 10 -5 26 -10 34 -8 11 -9 7 -4
-15z"/>
<path d="M3933 1093 c12 -31 22 -52 24 -46 4 10 -33 103 -40 103 -3 0 5 -25
16 -57z"/>
<path d="M3807 1061 c5 -47 3 -62 -5 -57 -8 5 -12 -1 -13 -16 0 -13 -8 -42
-17 -65 -42 -103 -127 -180 -205 -185 -32 -3 -35 -5 -20 -15 24 -19 76 -26
144 -21 53 4 64 9 102 44 23 22 31 26 17 10 -24 -27 -24 -28 -3 -17 12 6 27
19 32 29 6 9 11 12 11 7 0 -6 -15 -27 -34 -47 -29 -31 -32 -37 -18 -43 12 -5
31 9 66 47 30 32 40 39 25 18 -40 -56 -44 -67 -14 -40 15 14 45 52 66 84 22
33 39 56 39 52 0 -15 -55 -102 -84 -133 -16 -18 -25 -33 -20 -33 16 0 70 61
98 110 14 25 26 41 26 37 0 -13 -30 -69 -58 -107 l-25 -35 30 28 c17 16 39 46
48 68 10 21 20 37 22 35 5 -5 -25 -71 -50 -111 -13 -21 -4 -15 29 20 27 27 52
49 56 48 10 -4 20 35 12 48 -5 8 -3 9 6 4 9 -6 10 -2 5 15 -5 15 -4 20 4 16 7
-5 11 3 12 21 2 56 -3 106 -12 127 -7 16 -8 12 -5 -19 5 -46 -3 -30 -28 57 -9
32 -21 60 -26 63 -5 3 -5 -7 0 -24 21 -76 24 -268 3 -247 -4 3 -9 48 -13 98
l-7 93 -2 -70 c-1 -38 -6 -77 -11 -85 -7 -10 -8 -1 -4 30 5 39 -11 139 -21
129 -1 -2 2 -30 7 -62 6 -33 6 -62 2 -67 -5 -5 -10 7 -11 27 -2 47 -40 170
-55 179 -8 5 -9 2 -3 -12 5 -10 10 -57 11 -104 1 -63 0 -75 -6 -45 l-7 40 -3
-40 c-1 -22 -6 -53 -11 -70 -6 -23 -7 -17 -4 25 2 30 0 75 -4 100 l-8 45 -2
-60 c-2 -44 -5 -55 -11 -40 -8 18 -9 18 -10 -5 -1 -33 -44 -136 -54 -130 -4 3
-12 -3 -17 -13 -6 -9 -24 -24 -42 -33 -31 -16 -30 -15 9 22 56 52 90 156 79
241 -10 83 -25 111 -18 34z m200 -213 c-3 -8 -6 -5 -6 6 -1 11 2 17 5 13 3 -3
4 -12 1 -19z"/>
<path d="M4237 1074 c3 -21 10 -46 15 -54 6 -10 6 1 2 30 -3 25 -10 49 -15 54
-5 5 -6 -8 -2 -30z"/>
<path d="M3862 1070 c0 -14 2 -19 5 -12 2 6 2 18 0 25 -3 6 -5 1 -5 -13z"/>
<path d="M3892 1020 c0 -14 2 -19 5 -12 2 6 2 18 0 25 -3 6 -5 1 -5 -13z"/>
<path d="M3816 885 c-9 -26 -7 -32 5 -12 6 10 9 21 6 23 -2 3 -7 -2 -11 -11z"/>
<path d="M1065 1189 c-4 -6 -5 -12 -2 -15 2 -3 7 2 10 11 7 17 1 20 -8 4z"/>
<path d="M1042 1050 c0 -14 2 -19 5 -12 2 6 2 18 0 25 -3 6 -5 1 -5 -13z"/>
<path d="M1251 1055 c1 -19 18 -51 18 -35 0 8 -4 22 -9 30 -5 8 -9 11 -9 5z"/>
<path d="M1230 1035 c0 -5 5 -17 10 -25 5 -8 10 -10 10 -5 0 6 -5 17 -10 25
-5 8 -10 11 -10 5z"/>
<path d="M1201 984 c0 -11 3 -14 6 -6 3 7 2 16 -1 19 -3 4 -6 -2 -5 -13z"/>
<path d="M1255 955 c4 -22 11 -48 17 -58 18 -35 17 -12 -3 43 -18 49 -19 51
-14 15z"/>
<path d="M1001 944 c0 -11 3 -14 6 -6 3 7 2 16 -1 19 -3 4 -6 -2 -5 -13z"/>
<path d="M1011 903 c-1 -12 4 -25 9 -28 12 -7 12 2 0 30 -8 19 -9 19 -9 -2z"/>
<path d="M3661 1094 c0 -11 3 -14 6 -6 3 7 2 16 -1 19 -3 4 -6 -2 -5 -13z"/>
<path d="M2276 335 c-3 -8 -1 -15 4 -15 6 0 10 7 10 15 0 8 -2 15 -4 15 -2 0
-6 -7 -10 -15z"/>
<path d="M2280 260 c0 -6 7 -10 15 -10 8 0 15 2 15 4 0 2 -7 6 -15 10 -8 3
-15 1 -15 -4z"/>
<path d="M2490 878 c0 -23 3 -29 9 -19 8 12 4 51 -5 51 -2 0 -4 -15 -4 -32z"/>
<path d="M2808 563 c7 -3 16 -2 19 1 4 3 -2 6 -13 5 -11 0 -14 -3 -6 -6z"/>
<path d="M2828 543 c7 -3 16 -2 19 1 4 3 -2 6 -13 5 -11 0 -14 -3 -6 -6z"/>
<path d="M2962 385 c-11 -13 -10 -15 7 -15 14 0 19 5 15 15 -7 18 -6 18 -22 0z"/>
<path d="M1840 699 c0 -5 5 -7 10 -4 6 3 10 8 10 11 0 2 -4 4 -10 4 -5 0 -10
-5 -10 -11z"/>
<path d="M2190 491 c0 -6 4 -13 10 -16 6 -3 7 1 4 9 -7 18 -14 21 -14 7z"/>
</g>
</svg>
